<svg xmlns="http://www.w3.org/2000/svg" xmlns:xlink="http://www.w3.org/1999/xlink" width="500" zoomAndPan="magnify" viewBox="0 0 375 374.999991" height="500" preserveAspectRatio="xMidYMid meet" version="1.0"><path fill="#a948dd" d="M 270.09375 210.917969 C 256.722656 159.28125 201.339844 169.144531 201.339844 169.144531 L 197.574219 151.078125 C 197.574219 151.078125 236.535156 123.617188 248.035156 74.09375 C 259.535156 24.574219 236.769531 2.976562 221.058594 2.636719 C 158.765625 1.226562 158.730469 86.105469 175.28125 130.058594 C 175.28125 130.058594 91.503906 193.074219 114.378906 241.65625 C 137.257812 290.238281 210.132812 287.417969 210.132812 287.417969 C 210.132812 287.417969 221.058594 336.695312 207.703125 350.550781 C 194.347656 364.410156 176.496094 351.726562 176.496094 351.726562 C 176.496094 351.726562 197.855469 353.597656 196.664062 329.660156 C 195.472656 305.722656 155.140625 304.773438 151.84375 333.648438 C 148.546875 362.519531 183.058594 380.347656 207.46875 369.554688 C 231.875 358.761719 238.683594 331.304688 226.007812 286.484375 C 225.976562 286.492188 283.472656 262.554688 270.09375 210.917969 Z M 214.242188 47.8125 C 253.867188 64.433594 188.667969 120.570312 188.667969 120.570312 C 171.996094 64.011719 197.792969 40.902344 214.242188 47.8125 Z M 148.316406 229.464844 C 144.542969 186.0625 183.277344 159.320312 183.277344 159.320312 L 186.792969 175.292969 C 186.792969 175.292969 160.734375 190.773438 167.078125 221.054688 C 173.421875 251.339844 192.199219 254.847656 196.632812 250.390625 C 201.066406 245.933594 188.449219 238.414062 183.277344 224.335938 C 178.109375 210.261719 192.652344 197.59375 192.652344 197.59375 L 206.257812 268.226562 C 206.257812 268.226562 152.046875 272.878906 148.316406 229.464844 Z M 223.164062 263.046875 L 206.257812 191.671875 C 206.257812 191.671875 237.945312 182.902344 244.515625 213.808594 C 251.089844 244.71875 223.164062 263.046875 223.164062 263.046875 Z M 223.164062 263.046875 " fill-opacity="1" fill-rule="nonzero"/></svg>