<svg xmlns="http://www.w3.org/2000/svg" xmlns:xlink="http://www.w3.org/1999/xlink" width="1080" zoomAndPan="magnify" viewBox="0 0 810 1439.999935" height="1920" preserveAspectRatio="xMidYMid meet" version="1.0"><path fill="#ef0061" d="M 724.125 810.492188 C 672.460938 610.976562 458.476562 649.082031 458.476562 649.082031 L 443.917969 579.289062 C 443.917969 579.289062 594.464844 473.171875 638.894531 281.828125 C 683.324219 90.480469 595.371094 7.035156 534.65625 5.722656 C 293.964844 0.273438 293.839844 328.230469 357.777344 498.066406 C 357.777344 498.066406 34.078125 741.542969 122.472656 929.257812 C 210.863281 1116.972656 492.449219 1106.074219 492.449219 1106.074219 C 492.449219 1106.074219 534.65625 1296.480469 483.054688 1350.023438 C 431.453125 1403.566406 362.476562 1354.566406 362.476562 1354.566406 C 362.476562 1354.566406 445.011719 1361.796875 440.410156 1269.304688 C 435.808594 1176.808594 279.96875 1173.144531 267.226562 1284.707031 C 254.480469 1396.273438 387.835938 1465.15625 482.148438 1423.449219 C 576.457031 1381.742188 602.761719 1275.660156 553.789062 1102.472656 C 553.664062 1102.503906 775.820312 1010.011719 724.125 810.492188 Z M 508.324219 180.285156 C 661.4375 244.503906 409.503906 461.398438 409.503906 461.398438 C 345.097656 242.875 444.761719 153.574219 508.324219 180.285156 Z M 253.605469 882.164062 C 239.011719 714.460938 388.683594 611.132812 388.683594 611.132812 L 402.273438 672.847656 C 402.273438 672.847656 301.574219 732.652344 326.089844 849.664062 C 350.609375 966.675781 423.15625 980.234375 440.285156 963.011719 C 457.410156 945.789062 408.660156 916.734375 388.683594 862.34375 C 368.707031 807.957031 424.910156 759.015625 424.910156 759.015625 L 477.484375 1031.929688 C 477.484375 1031.929688 268.007812 1049.902344 253.605469 882.164062 Z M 542.796875 1011.921875 L 477.484375 736.128906 C 477.484375 736.128906 599.910156 702.25 625.304688 821.671875 C 650.699219 941.09375 542.796875 1011.921875 542.796875 1011.921875 Z M 542.796875 1011.921875 " fill-opacity="1" fill-rule="nonzero"/></svg>