<svg xmlns="http://www.w3.org/2000/svg" xmlns:xlink="http://www.w3.org/1999/xlink" width="1920" zoomAndPan="magnify" viewBox="0 0 1440 809.999993" height="1080" preserveAspectRatio="xMidYMid meet" version="1.0"><defs><g/><clipPath id="55e4c9b904"><rect x="0" width="1004" y="0" height="536"/></clipPath><clipPath id="725b5566f4"><rect x="0" width="273" y="0" height="113"/></clipPath><clipPath id="ab9efb1e38"><path d="M 0.640625 296 L 1321.359375 296 L 1321.359375 810 L 0.640625 810 Z M 0.640625 296 " clip-rule="nonzero"/></clipPath><clipPath id="572ab85860"><rect x="0" width="1322" y="0" height="514"/></clipPath><clipPath id="e866f9d594"><rect x="0" width="1322" y="0" height="810"/></clipPath><clipPath id="cb1106ea4f"><path d="M 357 55 L 445 55 L 445 171 L 357 171 Z M 357 55 " clip-rule="nonzero"/></clipPath><clipPath id="eb3881a944"><path d="M 376.253906 48.636719 L 455.941406 63.171875 L 434.402344 181.226562 L 354.71875 166.6875 Z M 376.253906 48.636719 " clip-rule="nonzero"/></clipPath><clipPath id="57d3ae1cd7"><path d="M 376.253906 48.636719 L 455.941406 63.171875 L 434.402344 181.226562 L 354.71875 166.6875 Z M 376.253906 48.636719 " clip-rule="nonzero"/></clipPath><clipPath id="16d1be53ab"><path d="M 138 253 L 214 253 L 214 350 L 138 350 Z M 138 253 " clip-rule="nonzero"/></clipPath><clipPath id="b1f2c991cc"><path d="M 120.46875 269.617188 L 194.417969 250.03125 L 216.308594 332.683594 L 142.355469 352.265625 Z M 120.46875 269.617188 " clip-rule="nonzero"/></clipPath><clipPath id="90549bfb8f"><path d="M 120.46875 269.617188 L 194.417969 250.03125 L 216.308594 332.683594 L 142.355469 352.265625 Z M 120.46875 269.617188 " clip-rule="nonzero"/></clipPath><clipPath id="650e43da91"><path d="M 138 255 L 211 255 L 211 346 L 138 346 Z M 138 255 " clip-rule="nonzero"/></clipPath><clipPath id="7482f9b33f"><path d="M 120.46875 269.617188 L 194.417969 250.03125 L 216.308594 332.683594 L 142.355469 352.265625 Z M 120.46875 269.617188 " clip-rule="nonzero"/></clipPath><clipPath id="527b380659"><path d="M 120.46875 269.617188 L 194.417969 250.03125 L 216.308594 332.683594 L 142.355469 352.265625 Z M 120.46875 269.617188 " clip-rule="nonzero"/></clipPath><clipPath id="d5375f9c90"><path d="M 139 258 L 205 258 L 205 338 L 139 338 Z M 139 258 " clip-rule="nonzero"/></clipPath><clipPath id="251944f543"><path d="M 120.46875 269.617188 L 194.417969 250.03125 L 216.308594 332.683594 L 142.355469 352.265625 Z M 120.46875 269.617188 " clip-rule="nonzero"/></clipPath><clipPath id="8cb4695542"><path d="M 120.46875 269.617188 L 194.417969 250.03125 L 216.308594 332.683594 L 142.355469 352.265625 Z M 120.46875 269.617188 " clip-rule="nonzero"/></clipPath><clipPath id="4f4d9c0c5c"><path d="M 138 115 L 193 115 L 193 199 L 138 199 Z M 138 115 " clip-rule="nonzero"/></clipPath><clipPath id="bffaf0436e"><path d="M 116.414062 135.097656 L 163.789062 97.066406 L 220.128906 167.25 L 172.757812 205.28125 Z M 116.414062 135.097656 " clip-rule="nonzero"/></clipPath><clipPath id="7c53852584"><path d="M 116.414062 135.097656 L 163.789062 97.066406 L 220.128906 167.25 L 172.757812 205.28125 Z M 116.414062 135.097656 " clip-rule="nonzero"/></clipPath></defs><g transform="matrix(1, 0, 0, 1, 62, 0.000000000000039746)"><g clip-path="url(#e866f9d594)"><g transform="matrix(1, 0, 0, 1, 302, 0.000000000000039746)"><g clip-path="url(#55e4c9b904)"><g fill="#ef0061" fill-opacity="1"><g transform="translate(1.797242, 345.274297)"><g><path d="M 260.09375 -130.046875 C 255.488281 -115.148438 250.207031 -99.976562 244.25 -84.53125 C 238.289062 -69.09375 231.925781 -54.597656 225.15625 -41.046875 C 211.0625 -11.785156 192.429688 10.832031 169.265625 26.8125 C 146.097656 42.800781 120.425781 50.796875 92.25 50.796875 C 79.519531 50.796875 67.664062 48.765625 56.6875 44.703125 C 45.71875 40.640625 36.164062 34.945312 28.03125 27.625 C 19.90625 20.3125 13.539062 11.710938 8.9375 1.828125 C 4.332031 -8.054688 2.03125 -18.691406 2.03125 -30.078125 C 2.03125 -43.078125 4.875 -55.265625 10.5625 -66.640625 C 16.25 -78.023438 23.96875 -87.984375 33.71875 -96.515625 C 43.476562 -105.054688 54.925781 -111.832031 68.0625 -116.84375 C 81.207031 -121.851562 95.234375 -124.359375 110.140625 -124.359375 C 126.660156 -124.359375 134.921875 -120.429688 134.921875 -112.578125 C 134.921875 -110.410156 134.582031 -108.648438 133.90625 -107.296875 C 133.226562 -105.941406 130.992188 -102.550781 127.203125 -97.125 C 125.578125 -94.6875 124.765625 -91.976562 124.765625 -89 C 124.765625 -84.125 127.066406 -79.992188 131.671875 -76.609375 C 136.273438 -73.222656 141.832031 -71.53125 148.34375 -71.53125 C 155.382812 -71.53125 162.492188 -73.5625 169.671875 -77.625 C 176.847656 -81.6875 182.878906 -87.101562 187.765625 -93.875 C 191.015625 -98.207031 193.585938 -101.863281 195.484375 -104.84375 C 197.378906 -107.832031 199.546875 -111.832031 201.984375 -116.84375 C 204.421875 -121.851562 207.535156 -128.757812 211.328125 -137.5625 C 215.117188 -146.375 220.40625 -158.769531 227.1875 -174.75 C 228.8125 -178.269531 230.300781 -181.65625 231.65625 -184.90625 C 233.007812 -188.164062 234.5 -191.554688 236.125 -195.078125 C 237.75 -198.597656 239.578125 -202.457031 241.609375 -206.65625 C 243.640625 -210.851562 246.007812 -215.796875 248.71875 -221.484375 C 233.820312 -217.421875 222.171875 -212.410156 213.765625 -206.453125 C 205.367188 -200.492188 201.171875 -194.265625 201.171875 -187.765625 C 201.171875 -183.421875 203.609375 -180.4375 208.484375 -178.8125 C 212.003906 -177.457031 214.238281 -176.375 215.1875 -175.5625 C 216.132812 -174.75 216.609375 -173.257812 216.609375 -171.09375 C 216.609375 -164.320312 211.734375 -156.332031 201.984375 -147.125 C 185.992188 -132.488281 169.46875 -125.171875 152.40625 -125.171875 C 145.625 -125.171875 139.390625 -126.320312 133.703125 -128.625 C 128.015625 -130.925781 123.070312 -134.039062 118.875 -137.96875 C 114.675781 -141.90625 111.359375 -146.515625 108.921875 -151.796875 C 106.484375 -157.078125 105.265625 -162.832031 105.265625 -169.0625 C 105.265625 -187.21875 112.578125 -203.675781 127.203125 -218.4375 C 141.835938 -233.207031 161.753906 -244.25 186.953125 -251.5625 C 198.597656 -255.082031 211.054688 -257.585938 224.328125 -259.078125 C 237.609375 -260.566406 253.191406 -261.3125 271.078125 -261.3125 C 298.441406 -298.164062 329.867188 -316.59375 365.359375 -316.59375 C 375.109375 -316.59375 383.097656 -314.351562 389.328125 -309.875 C 395.566406 -305.40625 398.6875 -299.648438 398.6875 -292.609375 C 398.6875 -288.003906 397.738281 -284.144531 395.84375 -281.03125 C 393.945312 -277.914062 390.832031 -274.867188 386.5 -271.890625 C 382.96875 -269.722656 379.375 -267.960938 375.71875 -266.609375 C 372.0625 -265.253906 368.742188 -264.578125 365.765625 -264.578125 C 363.328125 -264.578125 361.632812 -265.050781 360.6875 -266 C 359.738281 -266.945312 358.722656 -269.316406 357.640625 -273.109375 C 356.554688 -277.171875 353.578125 -279.203125 348.703125 -279.203125 C 336.234375 -279.203125 324.039062 -272.019531 312.125 -257.65625 C 334.332031 -253.863281 351.328125 -247.085938 363.109375 -237.328125 C 374.898438 -227.578125 380.796875 -215.390625 380.796875 -200.765625 C 380.796875 -193.453125 379.101562 -186.269531 375.71875 -179.21875 C 372.332031 -172.175781 367.660156 -166.351562 361.703125 -161.75 C 358.179688 -159.039062 354.453125 -156.875 350.515625 -155.25 C 346.585938 -153.625 340.96875 -151.726562 333.65625 -149.5625 C 340.695312 -148.207031 346.25 -146.578125 350.3125 -144.671875 C 354.382812 -142.773438 358.046875 -140.203125 361.296875 -136.953125 C 366.171875 -132.347656 369.960938 -126.390625 372.671875 -119.078125 C 375.378906 -111.765625 376.734375 -103.90625 376.734375 -95.5 C 376.734375 -82.226562 374.226562 -69.425781 369.21875 -57.09375 C 364.207031 -44.769531 357.566406 -33.796875 349.296875 -24.171875 C 341.035156 -14.554688 331.484375 -6.90625 320.640625 -1.21875 C 309.804688 4.46875 298.566406 7.3125 286.921875 7.3125 C 272.296875 7.3125 260.644531 3.316406 251.96875 -4.671875 C 243.300781 -12.660156 238.96875 -23.160156 238.96875 -36.171875 C 238.96875 -43.210938 239.914062 -50.1875 241.8125 -57.09375 C 243.707031 -64.007812 246.078125 -70.242188 248.921875 -75.796875 C 251.765625 -81.347656 255.015625 -85.816406 258.671875 -89.203125 C 262.328125 -92.585938 266.054688 -94.28125 269.859375 -94.28125 C 272.296875 -94.28125 273.785156 -93.875 274.328125 -93.0625 C 274.867188 -92.25 275.679688 -89.132812 276.765625 -83.71875 C 277.304688 -81.550781 278.390625 -79.722656 280.015625 -78.234375 C 281.640625 -76.742188 283.398438 -76 285.296875 -76 C 290.171875 -76 294.570312 -78.773438 298.5 -84.328125 C 302.425781 -89.878906 304.390625 -96.179688 304.390625 -103.234375 C 304.390625 -111.898438 301.273438 -118.535156 295.046875 -123.140625 C 288.816406 -127.742188 279.878906 -130.046875 268.234375 -130.046875 Z M 270.671875 -164.1875 C 282.585938 -164.1875 292.539062 -167.640625 300.53125 -174.546875 C 308.53125 -181.460938 312.53125 -190.066406 312.53125 -200.359375 C 312.53125 -212.273438 305.347656 -219.722656 290.984375 -222.703125 C 287.191406 -217.015625 283.332031 -209.023438 279.40625 -198.734375 C 275.476562 -188.441406 271.890625 -176.925781 268.640625 -164.1875 Z M 270.671875 -164.1875 "/></g></g></g><g fill="#ef0061" fill-opacity="1"><g transform="translate(363.082501, 345.274297)"><g><path d="M 28.859375 -106.484375 C 30.210938 -112.710938 30.890625 -117.046875 30.890625 -119.484375 C 30.890625 -125.171875 27.773438 -129.773438 21.546875 -133.296875 C 40.503906 -149.015625 58.519531 -156.875 75.59375 -156.875 C 82.632812 -156.875 88.253906 -155.113281 92.453125 -151.59375 C 96.648438 -148.070312 98.75 -143.191406 98.75 -136.953125 C 98.75 -134.785156 98.75 -133.296875 98.75 -132.484375 C 98.75 -131.671875 98.476562 -130.585938 97.9375 -129.234375 L 84.125 -64.625 C 83.582031 -62.457031 83.175781 -60.421875 82.90625 -58.515625 C 82.632812 -56.617188 82.5 -54.992188 82.5 -53.640625 C 82.5 -49.578125 83.582031 -46.328125 85.75 -43.890625 C 87.914062 -41.453125 90.894531 -40.234375 94.6875 -40.234375 C 96.3125 -40.234375 97.800781 -40.4375 99.15625 -40.84375 C 100.507812 -41.25 104.304688 -42.535156 110.546875 -44.703125 L 112.171875 -44.703125 C 116.234375 -44.703125 118.265625 -42.398438 118.265625 -37.796875 C 118.265625 -33.191406 116.097656 -28.445312 111.765625 -23.5625 C 107.429688 -18.6875 101.941406 -14.21875 95.296875 -10.15625 C 88.660156 -6.09375 81.414062 -2.707031 73.5625 0 C 65.707031 2.707031 58.253906 4.0625 51.203125 4.0625 C 40.367188 4.0625 31.359375 1.015625 24.171875 -5.078125 C 16.992188 -11.171875 13.40625 -18.960938 13.40625 -28.453125 C 13.40625 -32.515625 13.8125 -36.441406 14.625 -40.234375 Z M 82.5 -233.6875 C 91.976562 -233.6875 99.5625 -231.175781 105.25 -226.15625 C 110.945312 -221.144531 113.796875 -214.578125 113.796875 -206.453125 C 113.796875 -201.578125 112.578125 -196.972656 110.140625 -192.640625 C 107.703125 -188.304688 104.3125 -184.507812 99.96875 -181.25 C 95.632812 -178 90.691406 -175.359375 85.140625 -173.328125 C 79.585938 -171.296875 73.832031 -170.28125 67.875 -170.28125 C 59.195312 -170.28125 52.285156 -172.71875 47.140625 -177.59375 C 41.992188 -182.476562 39.421875 -188.984375 39.421875 -197.109375 C 39.421875 -201.984375 40.570312 -206.585938 42.875 -210.921875 C 45.175781 -215.253906 48.359375 -219.113281 52.421875 -222.5 C 56.484375 -225.894531 61.085938 -228.609375 66.234375 -230.640625 C 71.390625 -232.671875 76.8125 -233.6875 82.5 -233.6875 Z M 82.5 -233.6875 "/></g></g></g><g fill="#ef0061" fill-opacity="1"><g transform="translate(456.958739, 345.274297)"><g><path d="M 32.109375 -106.484375 C 32.648438 -110.273438 33.125 -113.320312 33.53125 -115.625 C 33.9375 -117.925781 34.140625 -120.023438 34.140625 -121.921875 C 34.140625 -125.171875 33.53125 -127.675781 32.3125 -129.4375 C 31.09375 -131.195312 28.722656 -133.023438 25.203125 -134.921875 C 35.492188 -142.785156 44.972656 -148.546875 53.640625 -152.203125 C 62.316406 -155.859375 70.988281 -157.6875 79.65625 -157.6875 C 94.832031 -157.6875 102.960938 -150.097656 104.046875 -134.921875 C 121.921875 -150.367188 140.476562 -158.09375 159.71875 -158.09375 C 170.550781 -158.09375 179.351562 -155.039062 186.125 -148.9375 C 192.90625 -142.84375 196.296875 -134.921875 196.296875 -125.171875 C 196.296875 -123.546875 196.160156 -121.71875 195.890625 -119.6875 C 195.617188 -117.65625 195.210938 -115.554688 194.671875 -113.390625 L 182.875 -62.59375 C 182.332031 -60.414062 181.925781 -58.378906 181.65625 -56.484375 C 181.382812 -54.585938 181.25 -53.097656 181.25 -52.015625 C 181.25 -44.160156 185.316406 -40.234375 193.453125 -40.234375 C 194.265625 -40.234375 195.007812 -40.234375 195.6875 -40.234375 C 196.363281 -40.234375 197.175781 -40.367188 198.125 -40.640625 C 199.070312 -40.910156 200.425781 -41.316406 202.1875 -41.859375 C 203.945312 -42.398438 206.453125 -43.210938 209.703125 -44.296875 L 210.921875 -44.296875 C 215.253906 -44.296875 217.421875 -41.859375 217.421875 -36.984375 C 217.421875 -32.648438 215.253906 -28.109375 210.921875 -23.359375 C 206.585938 -18.617188 201.101562 -14.21875 194.46875 -10.15625 C 187.832031 -6.09375 180.515625 -2.773438 172.515625 -0.203125 C 164.523438 2.367188 156.875 3.65625 149.5625 3.65625 C 137.90625 3.65625 128.757812 0.675781 122.125 -5.28125 C 115.488281 -11.238281 112.171875 -19.367188 112.171875 -29.671875 C 112.171875 -32.378906 112.578125 -35.222656 113.390625 -38.203125 L 122.328125 -81.28125 C 123.140625 -84.53125 123.546875 -87.644531 123.546875 -90.625 C 123.546875 -93.601562 122.53125 -96.109375 120.5 -98.140625 C 118.46875 -100.171875 115.691406 -101.1875 112.171875 -101.1875 C 101.328125 -101.1875 94.007812 -92.789062 90.21875 -76 L 79.25 -27.234375 C 77.351562 -18.554688 73.757812 -11.847656 68.46875 -7.109375 C 63.1875 -2.367188 57.023438 0 49.984375 0 L 32.921875 0 C 26.960938 0 22.082031 0.675781 18.28125 2.03125 C 14.488281 3.382812 10.5625 5.820312 6.5 9.34375 Z M 32.109375 -106.484375 "/></g></g></g><g fill="#ef0061" fill-opacity="1"><g transform="translate(649.589355, 345.274297)"><g><path d="M 171.09375 -25.609375 C 168.925781 -16.929688 166.625 -9.003906 164.1875 -1.828125 C 161.75 5.347656 158.972656 11.984375 155.859375 18.078125 C 152.742188 24.179688 149.351562 29.804688 145.6875 34.953125 C 142.03125 40.097656 137.765625 45.109375 132.890625 49.984375 C 121.785156 61.367188 109.457031 70.109375 95.90625 76.203125 C 82.363281 82.296875 68.273438 85.34375 53.640625 85.34375 C 37.390625 85.34375 24.046875 81.347656 13.609375 73.359375 C 3.179688 65.367188 -2.03125 55.140625 -2.03125 42.671875 C -2.03125 34.003906 0.203125 26.6875 4.671875 20.71875 C 9.140625 14.757812 16.523438 9.070312 26.828125 3.65625 C 27.367188 11.507812 30.144531 17.738281 35.15625 22.34375 C 40.164062 26.957031 46.328125 29.265625 53.640625 29.265625 C 60.960938 29.265625 68.484375 27.09375 76.203125 22.75 C 83.921875 18.414062 90.082031 12.863281 94.6875 6.09375 C 97.9375 1.488281 100.507812 -3.316406 102.40625 -8.328125 C 104.3125 -13.335938 106.617188 -20.722656 109.328125 -30.484375 C 103.359375 -23.984375 97.9375 -18.492188 93.0625 -14.015625 C 88.1875 -9.546875 83.582031 -5.890625 79.25 -3.046875 C 74.914062 -0.203125 70.644531 1.828125 66.4375 3.046875 C 62.238281 4.265625 57.972656 4.875 53.640625 4.875 C 40.097656 4.875 29.535156 -1.082031 21.953125 -13 C 18.960938 -17.875 16.65625 -23.359375 15.03125 -29.453125 C 13.40625 -35.554688 12.59375 -41.722656 12.59375 -47.953125 C 12.59375 -61.773438 15.164062 -75.1875 20.3125 -88.1875 C 25.46875 -101.195312 32.3125 -112.78125 40.84375 -122.9375 C 49.375 -133.09375 59.191406 -141.285156 70.296875 -147.515625 C 81.410156 -153.753906 92.796875 -156.875 104.453125 -156.875 C 111.492188 -156.875 117.789062 -155.585938 123.34375 -153.015625 C 128.894531 -150.441406 135.191406 -146.035156 142.234375 -139.796875 C 150.367188 -145.765625 157.144531 -149.96875 162.5625 -152.40625 C 167.976562 -154.84375 173.257812 -156.0625 178.40625 -156.0625 C 183.832031 -156.0625 188.171875 -154.4375 191.421875 -151.1875 C 194.671875 -147.9375 196.296875 -143.734375 196.296875 -138.578125 C 196.296875 -136.953125 196.226562 -135.597656 196.09375 -134.515625 C 195.957031 -133.429688 195.753906 -132.210938 195.484375 -130.859375 Z M 112.578125 -114.609375 C 109.597656 -114.609375 106.75 -113.796875 104.03125 -112.171875 C 101.320312 -110.546875 98.816406 -108.375 96.515625 -105.65625 C 94.210938 -102.945312 92.316406 -99.898438 90.828125 -96.515625 C 89.335938 -93.128906 88.457031 -89.675781 88.1875 -86.15625 C 87.914062 -81.820312 89 -78.300781 91.4375 -75.59375 C 93.875 -72.882812 96.988281 -71.53125 100.78125 -71.53125 C 104.039062 -71.53125 107.160156 -72.34375 110.140625 -73.96875 C 113.117188 -75.59375 115.757812 -77.828125 118.0625 -80.671875 C 120.363281 -83.515625 122.191406 -86.695312 123.546875 -90.21875 C 124.898438 -93.738281 125.578125 -97.394531 125.578125 -101.1875 C 125.578125 -104.988281 124.359375 -108.175781 121.921875 -110.75 C 119.484375 -113.320312 116.367188 -114.609375 112.578125 -114.609375 Z M 112.578125 -114.609375 "/></g></g></g><g fill="#ef0061" fill-opacity="1"><g transform="translate(825.55769, 345.274297)"><g><path d="M 107.296875 -156.46875 C 128.148438 -156.46875 144.671875 -150.570312 156.859375 -138.78125 C 169.054688 -127 175.15625 -111.082031 175.15625 -91.03125 C 175.15625 -77.757812 172.648438 -65.296875 167.640625 -53.640625 C 162.628906 -41.992188 155.71875 -31.898438 146.90625 -23.359375 C 138.101562 -14.828125 127.804688 -8.054688 116.015625 -3.046875 C 104.234375 1.960938 91.570312 4.46875 78.03125 4.46875 C 57.707031 4.46875 41.515625 -1.757812 29.453125 -14.21875 C 17.398438 -26.6875 11.375 -43.488281 11.375 -64.625 C 11.375 -76.8125 13.945312 -88.457031 19.09375 -99.5625 C 24.25 -110.675781 31.226562 -120.429688 40.03125 -128.828125 C 48.832031 -137.222656 59.054688 -143.925781 70.703125 -148.9375 C 82.359375 -153.957031 94.554688 -156.46875 107.296875 -156.46875 Z M 102.828125 -116.234375 C 97.128906 -116.234375 92.046875 -113.453125 87.578125 -107.890625 C 83.109375 -102.335938 80.875 -96.039062 80.875 -89 C 80.875 -84.125 82.160156 -80.0625 84.734375 -76.8125 C 87.304688 -73.5625 90.488281 -71.9375 94.28125 -71.9375 C 100.25 -71.9375 105.46875 -74.710938 109.9375 -80.265625 C 114.40625 -85.816406 116.640625 -92.25 116.640625 -99.5625 C 116.640625 -104.445312 115.351562 -108.445312 112.78125 -111.5625 C 110.207031 -114.675781 106.890625 -116.234375 102.828125 -116.234375 Z M 102.828125 -116.234375 "/></g></g></g></g></g><g transform="matrix(1, 0, 0, 1, 1008, 640)"><g clip-path="url(#725b5566f4)"><g fill="#ef0061" fill-opacity="1"><g transform="translate(4.57723, 79.001035)"><g><path d="M 8 0 L 8 -54.90625 L 29.25 -54.90625 C 34.53125 -54.90625 38.753906 -53.582031 41.921875 -50.9375 C 45.085938 -48.300781 46.671875 -44.757812 46.671875 -40.3125 C 46.671875 -37.644531 46.039062 -35.289062 44.78125 -33.25 C 43.53125 -31.21875 41.78125 -29.625 39.53125 -28.46875 C 42.351562 -27.320312 44.507812 -25.625 46 -23.375 C 47.488281 -21.125 48.234375 -18.457031 48.234375 -15.375 C 48.234375 -10.613281 46.625 -6.859375 43.40625 -4.109375 C 40.195312 -1.367188 35.820312 0 30.28125 0 Z M 14.90625 -6.4375 L 30.125 -6.4375 C 33.675781 -6.4375 36.40625 -7.242188 38.3125 -8.859375 C 40.226562 -10.484375 41.1875 -12.757812 41.1875 -15.6875 C 41.1875 -18.613281 40.21875 -20.875 38.28125 -22.46875 C 36.34375 -24.0625 33.597656 -24.859375 30.046875 -24.859375 L 14.90625 -24.859375 Z M 14.90625 -31.140625 L 29.09375 -31.140625 C 32.5 -31.140625 35.101562 -31.894531 36.90625 -33.40625 C 38.707031 -34.925781 39.609375 -37.046875 39.609375 -39.765625 C 39.609375 -42.535156 38.691406 -44.675781 36.859375 -46.1875 C 35.035156 -47.707031 32.445312 -48.46875 29.09375 -48.46875 L 14.90625 -48.46875 Z M 14.90625 -31.140625 "/></g></g></g><g fill="#ef0061" fill-opacity="1"><g transform="translate(51.861492, 79.001035)"><g><path d="M 5.890625 15.6875 L 5.890625 9.484375 L 9.890625 9.484375 C 12.503906 9.484375 14.410156 9.101562 15.609375 8.34375 C 16.804688 7.59375 17.828125 6.09375 18.671875 3.84375 L 20.546875 -0.9375 L 1.25 -40.703125 L 8.625 -40.703125 L 17.8125 -21.484375 L 23.765625 -8.859375 L 28.703125 -21.484375 L 36.3125 -40.703125 L 43.296875 -40.703125 L 24.625 6.359375 C 23.6875 8.816406 22.601562 10.722656 21.375 12.078125 C 20.144531 13.441406 18.664062 14.382812 16.9375 14.90625 C 15.21875 15.425781 13.078125 15.6875 10.515625 15.6875 Z M 5.890625 15.6875 "/></g></g></g><g fill="#ef0061" fill-opacity="1"><g transform="translate(92.323686, 79.001035)"><g><path d="M 1.328125 0 L 23.921875 -54.90625 L 30.359375 -54.90625 L 52.953125 0 L 45.65625 0 L 40.46875 -12.46875 L 13.734375 -12.46875 L 8.703125 0 Z M 16.390625 -18.90625 L 37.890625 -18.90625 L 27.140625 -45.265625 Z M 16.390625 -18.90625 "/></g></g></g><g fill="#ef0061" fill-opacity="1"><g transform="translate(142.509534, 79.001035)"><g><path d="M 29.5 1.015625 C 26.144531 1.015625 23.09375 0.363281 20.34375 -0.9375 C 17.601562 -2.25 15.316406 -4.03125 13.484375 -6.28125 L 12.703125 0 L 7.296875 0 L 7.296875 -58.046875 L 13.890625 -58.046875 L 13.890625 -34.90625 C 15.710938 -37.050781 17.96875 -38.722656 20.65625 -39.921875 C 23.351562 -41.128906 26.300781 -41.734375 29.5 -41.734375 C 33.519531 -41.734375 37.082031 -40.800781 40.1875 -38.9375 C 43.300781 -37.082031 45.75 -34.5625 47.53125 -31.375 C 49.3125 -28.1875 50.203125 -24.523438 50.203125 -20.390625 C 50.203125 -16.265625 49.3125 -12.59375 47.53125 -9.375 C 45.75 -6.15625 43.300781 -3.617188 40.1875 -1.765625 C 37.082031 0.0859375 33.519531 1.015625 29.5 1.015625 Z M 13.640625 -20.390625 C 13.640625 -17.460938 14.28125 -14.859375 15.5625 -12.578125 C 16.84375 -10.304688 18.609375 -8.53125 20.859375 -7.25 C 23.109375 -5.96875 25.695312 -5.328125 28.625 -5.328125 C 31.601562 -5.328125 34.21875 -5.96875 36.46875 -7.25 C 38.71875 -8.53125 40.46875 -10.304688 41.71875 -12.578125 C 42.976562 -14.859375 43.609375 -17.460938 43.609375 -20.390625 C 43.609375 -23.316406 42.976562 -25.914062 41.71875 -28.1875 C 40.46875 -30.46875 38.71875 -32.25 36.46875 -33.53125 C 34.21875 -34.8125 31.601562 -35.453125 28.625 -35.453125 C 25.695312 -35.453125 23.109375 -34.8125 20.859375 -33.53125 C 18.609375 -32.25 16.84375 -30.46875 15.5625 -28.1875 C 14.28125 -25.914062 13.640625 -23.316406 13.640625 -20.390625 Z M 13.640625 -20.390625 "/></g></g></g><g fill="#ef0061" fill-opacity="1"><g transform="translate(192.695382, 79.001035)"><g><path d="M 7.296875 0 L 7.296875 -40.703125 L 12.703125 -40.703125 L 13.484375 -33.65625 C 14.953125 -36.113281 16.769531 -37.898438 18.9375 -39.015625 C 21.113281 -40.140625 23.925781 -40.703125 27.375 -40.703125 L 31.0625 -40.703125 L 31.0625 -34.59375 L 27.0625 -34.59375 C 24.601562 -34.59375 22.378906 -34.09375 20.390625 -33.09375 C 18.398438 -32.101562 16.816406 -30.457031 15.640625 -28.15625 C 14.472656 -25.851562 13.890625 -22.769531 13.890625 -18.90625 L 13.890625 0 Z M 7.296875 0 "/></g></g></g><g fill="#ef0061" fill-opacity="1"><g transform="translate(222.806589, 79.001035)"><g><path d="M 23.53125 1.015625 C 18.195312 1.015625 14.023438 -0.707031 11.015625 -4.15625 C 8.015625 -7.601562 6.515625 -12.234375 6.515625 -18.046875 L 6.515625 -40.703125 L 13.09375 -40.703125 L 13.09375 -18.671875 C 13.09375 -14.585938 14.097656 -11.34375 16.109375 -8.9375 C 18.128906 -6.53125 20.890625 -5.328125 24.390625 -5.328125 C 28.210938 -5.328125 31.3125 -6.6875 33.6875 -9.40625 C 36.070312 -12.125 37.265625 -15.707031 37.265625 -20.15625 L 37.265625 -40.703125 L 43.84375 -40.703125 L 43.84375 0 L 38.4375 0 L 37.734375 -5.96875 C 35.953125 -3.5625 33.816406 -1.796875 31.328125 -0.671875 C 28.847656 0.453125 26.25 1.015625 23.53125 1.015625 Z M 23.53125 1.015625 "/></g></g></g></g></g><g clip-path="url(#ab9efb1e38)"><g transform="matrix(1, 0, 0, 1, 0.000000000000007105, 296)"><g clip-path="url(#572ab85860)"><g fill="#ef0061" fill-opacity="1"><g transform="translate(2.84319, 350.225023)"><g><path d="M 215.390625 -188.171875 C 219.453125 -188.171875 221.484375 -186.269531 221.484375 -182.46875 C 221.484375 -177.59375 219.113281 -172.582031 214.375 -167.4375 C 209.632812 -162.289062 203.609375 -157.484375 196.296875 -153.015625 C 188.984375 -148.546875 180.988281 -144.882812 172.3125 -142.03125 C 163.644531 -139.1875 155.382812 -137.765625 147.53125 -137.765625 C 139.9375 -137.765625 132.753906 -139.390625 125.984375 -142.640625 C 119.210938 -145.898438 113.25 -150.238281 108.09375 -155.65625 C 102.945312 -161.070312 98.882812 -167.367188 95.90625 -174.546875 C 92.925781 -181.734375 91.4375 -189.390625 91.4375 -197.515625 C 91.4375 -208.078125 93.875 -218.097656 98.75 -227.578125 C 103.632812 -237.066406 110.140625 -245.46875 118.265625 -252.78125 C 126.390625 -260.09375 135.867188 -265.847656 146.703125 -270.046875 C 157.546875 -274.253906 168.925781 -276.359375 180.84375 -276.359375 C 191.414062 -276.359375 202.253906 -274.9375 213.359375 -272.09375 C 224.472656 -269.25 237.476562 -264.4375 252.375 -257.65625 C 258.0625 -255.21875 262.867188 -253.253906 266.796875 -251.765625 C 270.734375 -250.273438 274.328125 -249.054688 277.578125 -248.109375 C 280.828125 -247.160156 283.941406 -246.550781 286.921875 -246.28125 C 289.898438 -246.007812 293.015625 -245.875 296.265625 -245.875 C 297.617188 -245.875 299.175781 -245.941406 300.9375 -246.078125 C 302.695312 -246.210938 304.53125 -246.414062 306.4375 -246.6875 C 308.601562 -246.957031 310.632812 -247.160156 312.53125 -247.296875 C 314.425781 -247.429688 315.914062 -247.5 317 -247.5 C 320.25 -247.5 322.890625 -246.347656 324.921875 -244.046875 C 326.953125 -241.742188 327.96875 -238.5625 327.96875 -234.5 C 327.96875 -232.332031 327.765625 -230.4375 327.359375 -228.8125 C 326.953125 -227.1875 325.664062 -222.847656 323.5 -215.796875 C 322.144531 -211.460938 321.0625 -206.585938 320.25 -201.171875 C 319.4375 -195.753906 319.03125 -190.742188 319.03125 -186.140625 C 319.03125 -183.148438 319.097656 -179.554688 319.234375 -175.359375 C 319.367188 -171.160156 319.707031 -166.488281 320.25 -161.34375 C 320.789062 -154.570312 321.128906 -149.351562 321.265625 -145.6875 C 321.398438 -142.03125 321.46875 -137.359375 321.46875 -131.671875 C 326.613281 -141.703125 331.554688 -150.710938 336.296875 -158.703125 C 341.035156 -166.691406 345.773438 -174.070312 350.515625 -180.84375 C 355.265625 -187.625 360.144531 -193.859375 365.15625 -199.546875 C 370.164062 -205.234375 375.648438 -210.921875 381.609375 -216.609375 C 394.890625 -229.078125 407.960938 -239.035156 420.828125 -246.484375 C 433.703125 -253.929688 444.472656 -257.65625 453.140625 -257.65625 C 457.203125 -257.65625 460.519531 -256.570312 463.09375 -254.40625 C 465.664062 -252.238281 466.953125 -249.53125 466.953125 -246.28125 C 466.953125 -243.570312 466.476562 -241.066406 465.53125 -238.765625 C 464.582031 -236.460938 462.484375 -232.46875 459.234375 -226.78125 C 456.796875 -222.707031 454.289062 -217.894531 451.71875 -212.34375 C 449.144531 -206.789062 446.570312 -200.96875 444 -194.875 C 441.425781 -188.78125 438.921875 -182.613281 436.484375 -176.375 C 434.046875 -170.144531 432.015625 -164.320312 430.390625 -158.90625 C 427.671875 -150.238281 425.566406 -141.226562 424.078125 -131.875 C 422.585938 -122.53125 421.84375 -113.523438 421.84375 -104.859375 C 421.84375 -95.640625 423.265625 -88.050781 426.109375 -82.09375 C 428.960938 -76.132812 432.691406 -73.15625 437.296875 -73.15625 C 439.460938 -73.15625 441.492188 -73.695312 443.390625 -74.78125 C 446.910156 -76.40625 449.617188 -77.21875 451.515625 -77.21875 C 453.410156 -77.21875 454.96875 -76.269531 456.1875 -74.375 C 457.40625 -72.476562 458.015625 -70.039062 458.015625 -67.0625 C 458.015625 -61.363281 456.660156 -54.585938 453.953125 -46.734375 C 451.242188 -38.878906 447.585938 -31.566406 442.984375 -24.796875 C 435.941406 -14.492188 427.609375 -6.5 417.984375 -0.8125 C 408.367188 4.875 398.414062 7.71875 388.125 7.71875 C 377.007812 7.71875 368.132812 2.976562 361.5 -6.5 C 354.863281 -15.988281 351.546875 -28.859375 351.546875 -45.109375 C 351.546875 -65.429688 354.660156 -85.679688 360.890625 -105.859375 C 367.117188 -126.046875 377.28125 -148.46875 391.375 -173.125 C 384.320312 -168.25 376.867188 -159.710938 369.015625 -147.515625 C 361.160156 -135.328125 352.082031 -118.664062 341.78125 -97.53125 C 338.800781 -91.570312 336.226562 -86.425781 334.0625 -82.09375 C 331.894531 -77.757812 329.726562 -73.628906 327.5625 -69.703125 C 325.394531 -65.773438 323.160156 -61.773438 320.859375 -57.703125 C 318.554688 -53.640625 315.78125 -49.171875 312.53125 -44.296875 C 307.925781 -36.710938 303.859375 -31.429688 300.328125 -28.453125 C 296.804688 -25.472656 293.015625 -23.984375 288.953125 -23.984375 C 281.640625 -23.984375 277.984375 -28.316406 277.984375 -36.984375 C 277.984375 -39.148438 278.050781 -41.113281 278.1875 -42.875 C 278.320312 -44.632812 278.796875 -48.492188 279.609375 -54.453125 C 279.878906 -55.804688 280.082031 -58.378906 280.21875 -62.171875 C 280.351562 -65.972656 280.554688 -70.039062 280.828125 -74.375 C 281.097656 -78.707031 281.300781 -82.835938 281.4375 -86.765625 C 281.570312 -90.691406 281.640625 -93.738281 281.640625 -95.90625 C 281.640625 -99.15625 281.570312 -102.742188 281.4375 -106.671875 C 281.300781 -110.609375 281.097656 -115.148438 280.828125 -120.296875 C 280.285156 -125.710938 279.945312 -130.925781 279.8125 -135.9375 C 279.675781 -140.957031 279.609375 -144.550781 279.609375 -146.71875 C 279.609375 -151.320312 279.742188 -155.113281 280.015625 -158.09375 C 280.285156 -161.070312 280.691406 -165.269531 281.234375 -170.6875 C 279.609375 -168.25 277.984375 -164.796875 276.359375 -160.328125 C 274.734375 -155.859375 272.703125 -149.554688 270.265625 -141.421875 C 267.828125 -133.296875 264.84375 -122.796875 261.3125 -109.921875 C 257.789062 -97.054688 253.59375 -81.144531 248.71875 -62.1875 C 244.113281 -46.738281 237.8125 -32.101562 229.8125 -18.28125 C 221.820312 -4.46875 212.953125 6.90625 203.203125 15.84375 C 191.015625 26.957031 176.789062 35.628906 160.53125 41.859375 C 144.269531 48.085938 127.742188 51.203125 110.953125 51.203125 C 96.046875 51.203125 81.953125 48.5625 68.671875 43.28125 C 55.398438 38 44.429688 30.753906 35.765625 21.546875 C 22.753906 7.722656 16.25 -9.890625 16.25 -31.296875 C 16.25 -64.078125 29.929688 -89.273438 57.296875 -106.890625 C 77.078125 -119.617188 98.210938 -125.984375 120.703125 -125.984375 C 130.453125 -125.984375 138.101562 -124.765625 143.65625 -122.328125 C 149.21875 -119.890625 152 -116.503906 152 -112.171875 C 152 -110.273438 151.660156 -108.851562 150.984375 -107.90625 C 150.304688 -106.957031 148.613281 -105.398438 145.90625 -103.234375 C 143.457031 -101.054688 141.421875 -98.613281 139.796875 -95.90625 C 138.171875 -93.195312 137.359375 -90.488281 137.359375 -87.78125 C 137.359375 -82.363281 139.796875 -77.691406 144.671875 -73.765625 C 149.554688 -69.835938 155.519531 -67.875 162.5625 -67.875 C 168.519531 -67.875 173.9375 -69.023438 178.8125 -71.328125 C 183.695312 -73.628906 188.578125 -77.625 193.453125 -83.3125 C 198.328125 -89 203.335938 -96.582031 208.484375 -106.0625 C 213.628906 -115.550781 219.457031 -127.472656 225.96875 -141.828125 C 230.84375 -152.671875 234.632812 -161.207031 237.34375 -167.4375 C 240.050781 -173.664062 242.554688 -178.878906 244.859375 -183.078125 C 247.160156 -187.285156 249.460938 -191.082031 251.765625 -194.46875 C 254.066406 -197.851562 257.25 -202.253906 261.3125 -207.671875 C 243.707031 -212.273438 230.972656 -214.578125 223.109375 -214.578125 C 216.609375 -214.578125 211.125 -212.882812 206.65625 -209.5 C 202.1875 -206.113281 199.953125 -202.117188 199.953125 -197.515625 C 199.953125 -194.535156 200.765625 -192.164062 202.390625 -190.40625 C 204.015625 -188.644531 206.179688 -187.765625 208.890625 -187.765625 C 209.429688 -187.765625 210.039062 -187.765625 210.71875 -187.765625 C 211.394531 -187.765625 212.273438 -187.898438 213.359375 -188.171875 Z M 215.390625 -188.171875 "/></g></g></g><g fill="#ef0061" fill-opacity="1"><g transform="translate(442.156609, 350.225023)"><g><path d="M 179.625 -64.625 C 178.269531 -58.382812 177.59375 -54.046875 177.59375 -51.609375 C 177.59375 -48.359375 178.742188 -45.582031 181.046875 -43.28125 C 183.359375 -40.976562 186.003906 -39.828125 188.984375 -39.828125 C 191.148438 -39.828125 193.992188 -40.503906 197.515625 -41.859375 C 201.578125 -43.484375 204.554688 -44.296875 206.453125 -44.296875 C 208.347656 -44.296875 209.972656 -43.617188 211.328125 -42.265625 C 212.679688 -40.910156 213.359375 -39.285156 213.359375 -37.390625 C 213.359375 -32.785156 211.125 -28.039062 206.65625 -23.15625 C 202.1875 -18.28125 196.492188 -13.8125 189.578125 -9.75 C 182.671875 -5.6875 175.085938 -2.300781 166.828125 0.40625 C 158.566406 3.113281 150.644531 4.46875 143.0625 4.46875 C 133.570312 4.46875 125.914062 2.03125 120.09375 -2.84375 C 114.269531 -7.71875 111.085938 -14.492188 110.546875 -23.171875 C 101.054688 -14.492188 90.960938 -7.71875 80.265625 -2.84375 C 69.566406 2.03125 59.742188 4.46875 50.796875 4.46875 C 40.234375 4.46875 31.359375 1.351562 24.171875 -4.875 C 16.992188 -11.101562 13.40625 -18.691406 13.40625 -27.640625 C 13.40625 -28.722656 13.472656 -29.875 13.609375 -31.09375 C 13.742188 -32.3125 13.945312 -33.597656 14.21875 -34.953125 L 29.265625 -107.296875 C 30.078125 -110.816406 30.484375 -114.203125 30.484375 -117.453125 C 30.484375 -120.972656 29.804688 -123.75 28.453125 -125.78125 C 27.097656 -127.8125 24.523438 -129.910156 20.734375 -132.078125 C 29.941406 -139.671875 39.285156 -145.566406 48.765625 -149.765625 C 58.253906 -153.960938 66.925781 -156.0625 74.78125 -156.0625 C 82.09375 -156.0625 87.847656 -154.097656 92.046875 -150.171875 C 96.242188 -146.242188 98.34375 -140.753906 98.34375 -133.703125 C 98.34375 -130.992188 98.207031 -129.234375 97.9375 -128.421875 L 86.15625 -71.9375 C 85.34375 -68.6875 84.9375 -65.84375 84.9375 -63.40625 C 84.9375 -60.414062 85.953125 -57.972656 87.984375 -56.078125 C 90.015625 -54.179688 92.65625 -53.234375 95.90625 -53.234375 C 101.601562 -53.234375 106.210938 -55.195312 109.734375 -59.125 C 113.253906 -63.0625 116.097656 -69.363281 118.265625 -78.03125 L 125.171875 -107.296875 C 125.710938 -109.460938 126.117188 -111.359375 126.390625 -112.984375 C 126.660156 -114.609375 126.796875 -116.234375 126.796875 -117.859375 C 127.066406 -121.109375 126.390625 -123.75 124.765625 -125.78125 C 123.140625 -127.8125 120.160156 -129.910156 115.828125 -132.078125 C 126.390625 -140.484375 136.070312 -146.582031 144.875 -150.375 C 153.6875 -154.164062 162.425781 -156.0625 171.09375 -156.0625 C 178.132812 -156.0625 183.753906 -154.164062 187.953125 -150.375 C 192.160156 -146.582031 194.265625 -141.429688 194.265625 -134.921875 C 194.265625 -133.296875 193.992188 -131.128906 193.453125 -128.421875 Z M 179.625 -64.625 "/></g></g></g><g fill="#ef0061" fill-opacity="1"><g transform="translate(631.129673, 350.225023)"><g><path d="M 93.46875 -156.875 C 102.414062 -156.875 110.679688 -155.992188 118.265625 -154.234375 C 125.847656 -152.472656 132.414062 -150.101562 137.96875 -147.125 C 143.53125 -144.144531 147.867188 -140.550781 150.984375 -136.34375 C 154.097656 -132.144531 155.65625 -127.609375 155.65625 -122.734375 C 155.65625 -117.316406 153.691406 -112.644531 149.765625 -108.71875 C 145.835938 -104.789062 141.160156 -102.828125 135.734375 -102.828125 C 131.941406 -102.828125 128.421875 -103.773438 125.171875 -105.671875 C 121.921875 -107.566406 117.585938 -110.953125 112.171875 -115.828125 C 105.671875 -122.328125 100.25 -125.578125 95.90625 -125.578125 C 93.738281 -125.578125 91.910156 -124.898438 90.421875 -123.546875 C 88.929688 -122.191406 88.1875 -120.566406 88.1875 -118.671875 C 88.1875 -117.046875 88.457031 -115.625 89 -114.40625 C 89.539062 -113.1875 90.691406 -111.832031 92.453125 -110.34375 C 94.210938 -108.851562 96.851562 -107.019531 100.375 -104.84375 C 103.90625 -102.675781 108.785156 -99.96875 115.015625 -96.71875 C 135.878906 -85.070312 146.3125 -71.117188 146.3125 -54.859375 C 146.3125 -45.921875 144.34375 -37.789062 140.40625 -30.46875 C 136.476562 -23.15625 130.992188 -16.859375 123.953125 -11.578125 C 116.910156 -6.296875 108.507812 -2.234375 98.75 0.609375 C 89 3.453125 78.164062 4.875 66.25 4.875 C 56.488281 4.875 47.613281 3.859375 39.625 1.828125 C 31.632812 -0.203125 24.789062 -2.976562 19.09375 -6.5 C 13.40625 -10.019531 9.003906 -14.285156 5.890625 -19.296875 C 2.773438 -24.316406 1.21875 -29.941406 1.21875 -36.171875 C 1.21875 -43.484375 3.585938 -49.644531 8.328125 -54.65625 C 13.066406 -59.675781 18.960938 -62.1875 26.015625 -62.1875 C 33.597656 -62.1875 41.046875 -59.335938 48.359375 -53.640625 C 48.898438 -53.097656 50.1875 -51.742188 52.21875 -49.578125 C 54.25 -47.410156 56.890625 -44.429688 60.140625 -40.640625 C 66.921875 -33.328125 73.289062 -29.671875 79.25 -29.671875 C 81.6875 -29.671875 83.785156 -30.550781 85.546875 -32.3125 C 87.304688 -34.070312 88.1875 -36.171875 88.1875 -38.609375 C 88.1875 -39.960938 87.914062 -41.179688 87.375 -42.265625 C 86.832031 -43.347656 85.75 -44.632812 84.125 -46.125 C 82.5 -47.613281 80.128906 -49.441406 77.015625 -51.609375 C 73.898438 -53.773438 69.769531 -56.484375 64.625 -59.734375 C 57.300781 -64.347656 51.335938 -68.550781 46.734375 -72.34375 C 42.128906 -76.132812 38.40625 -79.789062 35.5625 -83.3125 C 32.71875 -86.832031 30.753906 -90.488281 29.671875 -94.28125 C 28.585938 -98.070312 28.046875 -102.410156 28.046875 -107.296875 C 28.046875 -114.066406 29.804688 -120.429688 33.328125 -126.390625 C 36.847656 -132.347656 41.519531 -137.5625 47.34375 -142.03125 C 53.164062 -146.507812 60.070312 -150.101562 68.0625 -152.8125 C 76.0625 -155.519531 84.53125 -156.875 93.46875 -156.875 Z M 93.46875 -156.875 "/></g></g></g><g fill="#ef0061" fill-opacity="1"><g transform="translate(766.458408, 350.225023)"><g><path d="M 28.859375 -106.484375 C 30.210938 -112.710938 30.890625 -117.046875 30.890625 -119.484375 C 30.890625 -125.171875 27.773438 -129.773438 21.546875 -133.296875 C 40.503906 -149.015625 58.519531 -156.875 75.59375 -156.875 C 82.632812 -156.875 88.253906 -155.113281 92.453125 -151.59375 C 96.648438 -148.070312 98.75 -143.191406 98.75 -136.953125 C 98.75 -134.785156 98.75 -133.296875 98.75 -132.484375 C 98.75 -131.671875 98.476562 -130.585938 97.9375 -129.234375 L 84.125 -64.625 C 83.582031 -62.457031 83.175781 -60.421875 82.90625 -58.515625 C 82.632812 -56.617188 82.5 -54.992188 82.5 -53.640625 C 82.5 -49.578125 83.582031 -46.328125 85.75 -43.890625 C 87.914062 -41.453125 90.894531 -40.234375 94.6875 -40.234375 C 96.3125 -40.234375 97.800781 -40.4375 99.15625 -40.84375 C 100.507812 -41.25 104.304688 -42.535156 110.546875 -44.703125 L 112.171875 -44.703125 C 116.234375 -44.703125 118.265625 -42.398438 118.265625 -37.796875 C 118.265625 -33.191406 116.097656 -28.445312 111.765625 -23.5625 C 107.429688 -18.6875 101.941406 -14.21875 95.296875 -10.15625 C 88.660156 -6.09375 81.414062 -2.707031 73.5625 0 C 65.707031 2.707031 58.253906 4.0625 51.203125 4.0625 C 40.367188 4.0625 31.359375 1.015625 24.171875 -5.078125 C 16.992188 -11.171875 13.40625 -18.960938 13.40625 -28.453125 C 13.40625 -32.515625 13.8125 -36.441406 14.625 -40.234375 Z M 82.5 -233.6875 C 91.976562 -233.6875 99.5625 -231.175781 105.25 -226.15625 C 110.945312 -221.144531 113.796875 -214.578125 113.796875 -206.453125 C 113.796875 -201.578125 112.578125 -196.972656 110.140625 -192.640625 C 107.703125 -188.304688 104.3125 -184.507812 99.96875 -181.25 C 95.632812 -178 90.691406 -175.359375 85.140625 -173.328125 C 79.585938 -171.296875 73.832031 -170.28125 67.875 -170.28125 C 59.195312 -170.28125 52.285156 -172.71875 47.140625 -177.59375 C 41.992188 -182.476562 39.421875 -188.984375 39.421875 -197.109375 C 39.421875 -201.984375 40.570312 -206.585938 42.875 -210.921875 C 45.175781 -215.253906 48.359375 -219.113281 52.421875 -222.5 C 56.484375 -225.894531 61.085938 -228.609375 66.234375 -230.640625 C 71.390625 -232.671875 76.8125 -233.6875 82.5 -233.6875 Z M 82.5 -233.6875 "/></g></g></g><g fill="#ef0061" fill-opacity="1"><g transform="translate(860.334576, 350.225023)"><g><path d="M 113.796875 -128.421875 C 93.742188 -121.109375 83.71875 -107.289062 83.71875 -86.96875 C 83.71875 -75.59375 86.96875 -66.582031 93.46875 -59.9375 C 99.976562 -53.300781 108.785156 -49.984375 119.890625 -49.984375 C 122.597656 -49.984375 124.832031 -50.050781 126.59375 -50.1875 C 128.351562 -50.320312 130.25 -50.660156 132.28125 -51.203125 C 134.3125 -51.742188 136.882812 -52.757812 140 -54.25 C 143.125 -55.738281 147.53125 -57.703125 153.21875 -60.140625 C 155.113281 -60.960938 157.078125 -61.578125 159.109375 -61.984375 C 161.140625 -62.390625 162.96875 -62.59375 164.59375 -62.59375 C 171.363281 -62.59375 174.75 -59.066406 174.75 -52.015625 C 174.75 -44.429688 167.84375 -34.679688 154.03125 -22.765625 C 131.539062 -3.523438 107.832031 6.09375 82.90625 6.09375 C 73.15625 6.09375 63.941406 4.332031 55.265625 0.8125 C 46.597656 -2.707031 39.015625 -7.582031 32.515625 -13.8125 C 26.015625 -20.050781 20.863281 -27.300781 17.0625 -35.5625 C 13.269531 -43.820312 11.375 -52.695312 11.375 -62.1875 C 11.375 -74.914062 14.148438 -87.101562 19.703125 -98.75 C 25.265625 -110.40625 32.71875 -120.632812 42.0625 -129.4375 C 51.40625 -138.25 62.171875 -145.296875 74.359375 -150.578125 C 86.554688 -155.859375 99.429688 -158.5 112.984375 -158.5 C 129.234375 -158.5 142.503906 -154.566406 152.796875 -146.703125 C 163.097656 -138.847656 168.25 -128.828125 168.25 -116.640625 C 168.25 -107.160156 165.066406 -99.300781 158.703125 -93.0625 C 152.335938 -86.832031 144.410156 -83.71875 134.921875 -83.71875 C 127.066406 -83.71875 120.566406 -86.15625 115.421875 -91.03125 C 110.273438 -95.90625 107.703125 -102.273438 107.703125 -110.140625 C 107.703125 -113.117188 108.175781 -115.960938 109.125 -118.671875 C 110.070312 -121.378906 111.628906 -124.628906 113.796875 -128.421875 Z M 113.796875 -128.421875 "/></g></g></g><g fill="#ef0061" fill-opacity="1"><g transform="translate(1011.10635, 350.225023)"><g><path d="M 178.8125 -65.03125 C 177.1875 -57.976562 176.375 -53.234375 176.375 -50.796875 C 176.375 -47.816406 177.523438 -45.242188 179.828125 -43.078125 C 182.140625 -40.910156 185.054688 -39.828125 188.578125 -39.828125 C 191.554688 -39.828125 194.265625 -40.367188 196.703125 -41.453125 C 202.390625 -43.078125 205.503906 -43.890625 206.046875 -43.890625 C 207.941406 -43.890625 209.566406 -43.210938 210.921875 -41.859375 C 212.273438 -40.503906 212.953125 -38.742188 212.953125 -36.578125 C 212.953125 -32.242188 210.71875 -27.703125 206.25 -22.953125 C 201.78125 -18.210938 196.15625 -13.8125 189.375 -9.75 C 182.601562 -5.6875 175.222656 -2.300781 167.234375 0.40625 C 159.242188 3.113281 151.726562 4.46875 144.6875 4.46875 C 135.195312 4.46875 127.335938 1.351562 121.109375 -4.875 C 114.878906 -11.101562 111.765625 -18.960938 111.765625 -28.453125 C 111.765625 -29.804688 111.765625 -31.226562 111.765625 -32.71875 C 111.765625 -34.207031 111.898438 -35.898438 112.171875 -37.796875 C 108.648438 -33.460938 105.800781 -29.941406 103.625 -27.234375 C 101.457031 -24.523438 99.5625 -22.21875 97.9375 -20.3125 C 96.3125 -18.414062 94.753906 -16.789062 93.265625 -15.4375 C 91.773438 -14.082031 90.21875 -12.59375 88.59375 -10.96875 C 83.445312 -5.820312 77.625 -1.828125 71.125 1.015625 C 64.625 3.859375 58.523438 5.28125 52.828125 5.28125 C 40.640625 5.28125 30.679688 0.269531 22.953125 -9.75 C 15.234375 -19.78125 11.375 -32.648438 11.375 -48.359375 C 11.375 -61.910156 13.945312 -75.1875 19.09375 -88.1875 C 24.25 -101.195312 30.957031 -112.78125 39.21875 -122.9375 C 47.476562 -133.09375 56.957031 -141.21875 67.65625 -147.3125 C 78.363281 -153.414062 89.40625 -156.46875 100.78125 -156.46875 C 116.769531 -156.46875 129.910156 -150.640625 140.203125 -138.984375 C 145.085938 -142.515625 149.289062 -145.363281 152.8125 -147.53125 C 156.332031 -149.695312 159.445312 -151.390625 162.15625 -152.609375 C 164.863281 -153.828125 167.367188 -154.640625 169.671875 -155.046875 C 171.972656 -155.453125 174.476562 -155.65625 177.1875 -155.65625 C 182.613281 -155.65625 187.019531 -154.234375 190.40625 -151.390625 C 193.789062 -148.546875 195.347656 -144.953125 195.078125 -140.609375 C 195.078125 -137.898438 194.671875 -135.191406 193.859375 -132.484375 Z M 110.953125 -114.203125 C 104.992188 -114.203125 99.773438 -111.554688 95.296875 -106.265625 C 90.828125 -100.984375 88.59375 -94.957031 88.59375 -88.1875 C 88.59375 -77.894531 93.066406 -72.75 102.015625 -72.75 C 104.722656 -72.75 107.363281 -73.5625 109.9375 -75.1875 C 112.507812 -76.8125 114.8125 -78.976562 116.84375 -81.6875 C 118.875 -84.394531 120.5 -87.441406 121.71875 -90.828125 C 122.9375 -94.210938 123.546875 -97.800781 123.546875 -101.59375 C 123.546875 -110 119.347656 -114.203125 110.953125 -114.203125 Z M 110.953125 -114.203125 "/></g></g></g><g fill="#ef0061" fill-opacity="1"><g transform="translate(1199.266691, 350.225023)"><g><path d="M 49.171875 -205.234375 C 49.984375 -209.566406 50.390625 -213.492188 50.390625 -217.015625 C 50.390625 -220.804688 49.78125 -223.582031 48.5625 -225.34375 C 47.34375 -227.113281 44.972656 -228.675781 41.453125 -230.03125 C 49.304688 -237.613281 58.039062 -243.570312 67.65625 -247.90625 C 77.28125 -252.238281 86.425781 -254.40625 95.09375 -254.40625 C 102.414062 -254.40625 108.3125 -252.507812 112.78125 -248.71875 C 117.25 -244.925781 119.484375 -239.914062 119.484375 -233.6875 C 119.484375 -232.332031 119.414062 -231.046875 119.28125 -229.828125 C 119.144531 -228.609375 118.941406 -227.320312 118.671875 -225.96875 L 82.09375 -59.328125 C 81.28125 -56.347656 80.875 -53.640625 80.875 -51.203125 C 80.875 -43.617188 84.800781 -39.828125 92.65625 -39.828125 C 95.632812 -39.828125 98.34375 -40.367188 100.78125 -41.453125 C 104.039062 -42.804688 106.28125 -43.617188 107.5 -43.890625 C 108.71875 -44.160156 109.597656 -44.296875 110.140625 -44.296875 C 112.035156 -44.296875 113.660156 -43.550781 115.015625 -42.0625 C 116.367188 -40.570312 117.046875 -38.742188 117.046875 -36.578125 C 117.046875 -31.972656 113.117188 -26.007812 105.265625 -18.6875 C 97.398438 -11.644531 88.59375 -6.09375 78.84375 -2.03125 C 69.09375 2.03125 59.335938 4.0625 49.578125 4.0625 C 38.203125 4.0625 28.988281 0.945312 21.9375 -5.28125 C 14.894531 -11.507812 11.375 -19.773438 11.375 -30.078125 C 11.375 -33.054688 11.78125 -36.441406 12.59375 -40.234375 Z M 49.171875 -205.234375 "/></g></g></g></g></g></g></g></g><path fill="#ef0061" d="M 335.410156 220.929688 C 326.492188 186.484375 289.550781 193.0625 289.550781 193.0625 L 287.035156 181.015625 C 287.035156 181.015625 313.027344 162.695312 320.699219 129.660156 C 328.367188 96.625 313.183594 82.21875 302.703125 81.992188 C 261.148438 81.050781 261.125 137.671875 272.164062 166.992188 C 272.164062 166.992188 216.28125 209.027344 231.539062 241.433594 C 246.800781 273.84375 295.414062 271.960938 295.414062 271.960938 C 295.414062 271.960938 302.703125 304.832031 293.792969 314.078125 C 284.882812 323.320312 272.976562 314.859375 272.976562 314.859375 C 272.976562 314.859375 287.226562 316.109375 286.429688 300.140625 C 285.636719 284.171875 258.730469 283.539062 256.53125 302.800781 C 254.332031 322.0625 277.355469 333.953125 293.636719 326.753906 C 309.917969 319.554688 314.460938 301.238281 306.003906 271.339844 C 305.984375 271.34375 344.335938 255.375 335.410156 220.929688 Z M 298.15625 112.128906 C 324.589844 123.214844 281.09375 160.660156 281.09375 160.660156 C 269.976562 122.933594 287.183594 107.519531 298.15625 112.128906 Z M 254.179688 233.304688 C 251.660156 204.351562 277.5 186.511719 277.5 186.511719 L 279.847656 197.167969 C 279.847656 197.167969 262.460938 207.492188 266.695312 227.691406 C 270.925781 247.894531 283.453125 250.234375 286.410156 247.261719 C 289.367188 244.289062 280.949219 239.273438 277.5 229.882812 C 274.050781 220.492188 283.753906 212.042969 283.753906 212.042969 L 292.832031 259.160156 C 292.832031 259.160156 256.667969 262.261719 254.179688 233.304688 Z M 304.105469 255.707031 L 292.832031 208.089844 C 292.832031 208.089844 313.96875 202.242188 318.351562 222.859375 C 322.734375 243.476562 304.105469 255.707031 304.105469 255.707031 Z M 304.105469 255.707031 " fill-opacity="1" fill-rule="nonzero"/><g clip-path="url(#cb1106ea4f)"><g clip-path="url(#eb3881a944)"><g clip-path="url(#57d3ae1cd7)"><path fill="#ef0061" d="M 422.554688 135.65625 C 418.277344 137.917969 413.71875 139.589844 408.964844 140.546875 C 408.964844 140.546875 444.316406 97.53125 413.902344 82.507812 L 401.773438 148.996094 C 402.300781 151.203125 402.351562 153.464844 401.933594 155.75 C 400.046875 166.101562 388.722656 172.6875 376.644531 170.484375 C 364.5625 168.28125 356.296875 158.117188 358.183594 147.769531 C 360.074219 137.417969 371.398438 130.832031 383.476562 133.035156 C 389.914062 134.207031 395.257812 137.652344 398.585938 142.15625 L 411.496094 57.28125 C 411.679688 56.066406 412.960938 55.332031 414.132812 55.761719 L 416.96875 56.886719 C 417.835938 57.222656 418.3125 58.132812 418.148438 59.03125 L 417.820312 60.832031 C 429.980469 69.273438 441.269531 81.882812 443.917969 96.78125 C 446.929688 113.386719 436.84375 128.105469 422.554688 135.65625 Z M 422.554688 135.65625 " fill-opacity="1" fill-rule="nonzero"/></g></g></g><g clip-path="url(#16d1be53ab)"><g clip-path="url(#b1f2c991cc)"><g clip-path="url(#90549bfb8f)"><path fill="#ef0061" d="M 195.507812 254.628906 L 213.214844 321.488281 C 215.179688 328.910156 206.628906 334.800781 200.457031 336.4375 C 191.371094 338.84375 181.894531 334.5625 181.074219 324.589844 C 180.015625 311.660156 194.875 310.863281 203.917969 314.074219 C 204.789062 314.382812 205.636719 313.601562 205.398438 312.710938 L 196.625 279.574219 C 196.410156 278.765625 195.449219 278.457031 194.800781 278.988281 C 184.929688 287.085938 168.828125 274.070312 157.921875 283.015625 C 157.5625 283.308594 157.425781 283.734375 157.546875 284.1875 L 170.617188 333.550781 C 172.585938 340.976562 164.03125 346.867188 157.863281 348.5 C 148.777344 350.90625 139.300781 346.628906 138.480469 336.65625 C 137.417969 323.726562 152.277344 322.929688 161.324219 326.140625 C 162.191406 326.449219 163.039062 325.667969 162.804688 324.777344 L 148.28125 269.941406 C 148.214844 269.6875 148.230469 269.453125 148.332031 269.210938 C 157.914062 246.257812 181.15625 272.527344 193.464844 254.285156 C 194.015625 253.472656 195.257812 253.683594 195.507812 254.628906 Z M 195.507812 254.628906 " fill-opacity="1" fill-rule="evenodd"/></g></g></g><g clip-path="url(#650e43da91)"><g clip-path="url(#7482f9b33f)"><g clip-path="url(#527b380659)"><path fill="#ef0061" d="M 182.992188 330.699219 C 181.949219 328.992188 181.269531 326.949219 181.074219 324.589844 C 180.015625 311.660156 194.875 310.863281 203.917969 314.074219 C 204.789062 314.382812 205.636719 313.601562 205.398438 312.710938 L 196.15625 277.808594 C 195.46875 275.214844 193.695312 274.050781 191.78125 275.625 C 181.910156 283.726562 165.808594 270.707031 154.902344 279.652344 C 154.542969 279.945312 154.40625 280.371094 154.523438 280.824219 L 167.597656 330.1875 C 169.5625 337.613281 161.011719 343.503906 154.84375 345.136719 C 149.570312 346.535156 144.164062 345.679688 140.398438 342.765625 C 139.351562 341.058594 138.675781 339.015625 138.480469 336.65625 C 137.417969 323.726562 152.277344 322.929688 161.324219 326.140625 C 162.191406 326.449219 163.039062 325.667969 162.804688 324.777344 L 148.28125 269.941406 C 148.214844 269.6875 148.230469 269.453125 148.332031 269.210938 C 157.769531 246.59375 180.472656 271.765625 192.914062 255.058594 C 193.300781 255.238281 193.65625 255.679688 193.828125 256.332031 L 210.195312 318.125 C 212.160156 325.546875 203.605469 331.441406 197.4375 333.074219 C 192.164062 334.46875 186.761719 333.613281 182.992188 330.703125 Z M 182.992188 330.699219 " fill-opacity="1" fill-rule="evenodd"/></g></g></g><g clip-path="url(#d5375f9c90)"><g clip-path="url(#251944f543)"><g clip-path="url(#8cb4695542)"><path fill="#ef0061" d="M 190.875 259.09375 C 191.414062 258.664062 192.199219 258.753906 192.628906 259.292969 C 193.058594 259.828125 192.96875 260.613281 192.429688 261.042969 C 178.273438 272.398438 159.613281 253.96875 152.207031 269.863281 L 153.792969 275.851562 C 153.96875 276.519531 153.574219 277.203125 152.90625 277.378906 C 152.242188 277.554688 151.558594 277.15625 151.378906 276.492188 L 149.683594 270.078125 C 149.613281 269.816406 149.628906 269.527344 149.746094 269.257812 C 158.132812 250.167969 177.539062 269.792969 190.875 259.09375 Z M 160.878906 327.386719 C 161.527344 327.613281 161.867188 328.328125 161.636719 328.976562 C 161.410156 329.625 160.695312 329.964844 160.046875 329.734375 C 153.980469 327.578125 141.484375 326.691406 142.277344 336.34375 C 142.335938 337.027344 141.824219 337.628906 141.140625 337.683594 C 140.457031 337.738281 139.855469 337.230469 139.800781 336.546875 C 138.828125 324.710938 152.867188 324.539062 160.878906 327.386719 Z M 203.476562 315.320312 C 204.125 315.550781 204.464844 316.261719 204.234375 316.910156 C 204.003906 317.558594 203.292969 317.898438 202.644531 317.667969 C 196.574219 315.515625 184.082031 314.621094 184.878906 324.277344 C 184.933594 324.964844 184.425781 325.566406 183.738281 325.625 C 183.050781 325.679688 182.445312 325.167969 182.390625 324.480469 C 181.417969 312.648438 195.46875 312.476562 203.476562 315.320312 Z M 203.476562 315.320312 " fill-opacity="1" fill-rule="nonzero"/></g></g></g><g clip-path="url(#4f4d9c0c5c)"><g clip-path="url(#bffaf0436e)"><g clip-path="url(#7c53852584)"><path fill="#ef0061" d="M 188.621094 151.617188 C 187.800781 155.160156 186.507812 158.570312 184.710938 161.742188 C 184.710938 161.742188 177.675781 120.5 154.179688 130.378906 L 185.972656 169.984375 C 187.484375 170.769531 188.796875 171.855469 189.886719 173.214844 C 194.835938 179.378906 193.007812 189.054688 185.8125 194.828125 C 178.617188 200.605469 168.777344 200.300781 163.828125 194.136719 C 158.878906 187.972656 160.707031 178.296875 167.902344 172.523438 C 171.738281 169.445312 176.324219 168.101562 180.519531 168.429688 L 138.667969 119.335938 C 138.066406 118.632812 138.28125 117.542969 139.101562 117.089844 L 141.136719 116.03125 C 141.753906 115.707031 142.503906 115.882812 142.9375 116.417969 L 143.796875 117.488281 C 154.574219 114.738281 167.289062 114.53125 177.050781 120.355469 C 187.96875 126.816406 191.363281 139.789062 188.621094 151.617188 Z M 188.621094 151.617188 " fill-opacity="1" fill-rule="nonzero"/></g></g></g></svg>