<svg xmlns="http://www.w3.org/2000/svg" xmlns:xlink="http://www.w3.org/1999/xlink" width="500" zoomAndPan="magnify" viewBox="0 0 375 374.999991" height="500" preserveAspectRatio="xMidYMid meet" version="1.0"><defs><g/><clipPath id="0cd986fff6"><path d="M 0.558594 5 L 65 5 L 65 65 L 0.558594 65 Z M 0.558594 5 " clip-rule="nonzero"/></clipPath><clipPath id="5a0bfaae0e"><rect x="0" width="368" y="0" height="87"/></clipPath><clipPath id="c05051df10"><path d="M 11 5 L 22 5 L 22 19.71875 L 11 19.71875 Z M 11 5 " clip-rule="nonzero"/></clipPath><clipPath id="00aa7fdc50"><path d="M 30 0.519531 L 41 0.519531 L 41 16 L 30 16 Z M 30 0.519531 " clip-rule="nonzero"/></clipPath><clipPath id="dbc4048aac"><path d="M 46 4 L 58.441406 4 L 58.441406 16 L 46 16 Z M 46 4 " clip-rule="nonzero"/></clipPath><clipPath id="9c78b3cbf9"><rect x="0" width="59" y="0" height="20"/></clipPath></defs><g transform="matrix(1, 0, 0, 1, 4, 144)"><g clip-path="url(#5a0bfaae0e)"><g clip-path="url(#0cd986fff6)"><g fill="#ef0061" fill-opacity="1"><g transform="translate(0.623663, 56.251159)"><g><path d="M 41.5 -20.75 C 40.757812 -18.375 39.914062 -15.953125 38.96875 -13.484375 C 38.019531 -11.023438 37.003906 -8.710938 35.921875 -6.546875 C 33.671875 -1.878906 30.695312 1.726562 27 4.28125 C 23.3125 6.832031 19.21875 8.109375 14.71875 8.109375 C 12.6875 8.109375 10.796875 7.78125 9.046875 7.125 C 7.296875 6.476562 5.769531 5.570312 4.46875 4.40625 C 3.175781 3.238281 2.160156 1.863281 1.421875 0.28125 C 0.691406 -1.289062 0.328125 -2.984375 0.328125 -4.796875 C 0.328125 -6.867188 0.78125 -8.8125 1.6875 -10.625 C 2.59375 -12.445312 3.820312 -14.035156 5.375 -15.390625 C 6.9375 -16.753906 8.765625 -17.835938 10.859375 -18.640625 C 12.953125 -19.441406 15.191406 -19.84375 17.578125 -19.84375 C 20.210938 -19.84375 21.53125 -19.21875 21.53125 -17.96875 C 21.53125 -17.613281 21.472656 -17.328125 21.359375 -17.109375 C 21.253906 -16.898438 20.898438 -16.363281 20.296875 -15.5 C 20.035156 -15.101562 19.90625 -14.671875 19.90625 -14.203125 C 19.90625 -13.421875 20.269531 -12.757812 21 -12.21875 C 21.738281 -11.675781 22.628906 -11.40625 23.671875 -11.40625 C 24.796875 -11.40625 25.929688 -11.726562 27.078125 -12.375 C 28.222656 -13.03125 29.179688 -13.898438 29.953125 -14.984375 C 30.472656 -15.671875 30.882812 -16.25 31.1875 -16.71875 C 31.488281 -17.195312 31.832031 -17.835938 32.21875 -18.640625 C 32.613281 -19.441406 33.113281 -20.546875 33.71875 -21.953125 C 34.320312 -23.359375 35.164062 -25.332031 36.25 -27.875 C 36.507812 -28.4375 36.742188 -28.976562 36.953125 -29.5 C 37.171875 -30.019531 37.410156 -30.5625 37.671875 -31.125 C 37.929688 -31.6875 38.222656 -32.300781 38.546875 -32.96875 C 38.867188 -33.644531 39.25 -34.4375 39.6875 -35.34375 C 37.3125 -34.6875 35.453125 -33.882812 34.109375 -32.9375 C 32.765625 -31.988281 32.09375 -30.992188 32.09375 -29.953125 C 32.09375 -29.265625 32.484375 -28.789062 33.265625 -28.53125 C 33.828125 -28.3125 34.179688 -28.132812 34.328125 -28 C 34.484375 -27.875 34.5625 -27.640625 34.5625 -27.296875 C 34.5625 -26.210938 33.785156 -24.9375 32.234375 -23.46875 C 29.679688 -21.132812 27.039062 -19.96875 24.3125 -19.96875 C 23.226562 -19.96875 22.234375 -20.148438 21.328125 -20.515625 C 20.421875 -20.890625 19.632812 -21.390625 18.96875 -22.015625 C 18.300781 -22.640625 17.769531 -23.375 17.375 -24.21875 C 16.988281 -25.0625 16.796875 -25.976562 16.796875 -26.96875 C 16.796875 -29.863281 17.960938 -32.488281 20.296875 -34.84375 C 22.628906 -37.207031 25.804688 -38.972656 29.828125 -40.140625 C 31.679688 -40.703125 33.664062 -41.097656 35.78125 -41.328125 C 37.90625 -41.566406 40.394531 -41.6875 43.25 -41.6875 C 47.613281 -47.570312 52.628906 -50.515625 58.296875 -50.515625 C 59.847656 -50.515625 61.117188 -50.15625 62.109375 -49.4375 C 63.109375 -48.726562 63.609375 -47.8125 63.609375 -46.6875 C 63.609375 -45.945312 63.457031 -45.328125 63.15625 -44.828125 C 62.851562 -44.335938 62.359375 -43.851562 61.671875 -43.375 C 61.109375 -43.03125 60.535156 -42.75 59.953125 -42.53125 C 59.367188 -42.320312 58.835938 -42.21875 58.359375 -42.21875 C 57.972656 -42.21875 57.703125 -42.289062 57.546875 -42.4375 C 57.398438 -42.59375 57.238281 -42.972656 57.0625 -43.578125 C 56.882812 -44.222656 56.410156 -44.546875 55.640625 -44.546875 C 53.648438 -44.546875 51.703125 -43.398438 49.796875 -41.109375 C 53.335938 -40.503906 56.050781 -39.421875 57.9375 -37.859375 C 59.820312 -36.304688 60.765625 -34.363281 60.765625 -32.03125 C 60.765625 -30.863281 60.492188 -29.71875 59.953125 -28.59375 C 59.410156 -27.46875 58.660156 -26.539062 57.703125 -25.8125 C 57.148438 -25.375 56.554688 -25.023438 55.921875 -24.765625 C 55.296875 -24.503906 54.398438 -24.203125 53.234375 -23.859375 C 54.359375 -23.640625 55.242188 -23.378906 55.890625 -23.078125 C 56.546875 -22.773438 57.128906 -22.367188 57.640625 -21.859375 C 58.421875 -21.117188 59.023438 -20.164062 59.453125 -19 C 59.890625 -17.832031 60.109375 -16.578125 60.109375 -15.234375 C 60.109375 -13.117188 59.707031 -11.078125 58.90625 -9.109375 C 58.101562 -7.140625 57.039062 -5.390625 55.71875 -3.859375 C 54.40625 -2.328125 52.882812 -1.101562 51.15625 -0.1875 C 49.425781 0.71875 47.632812 1.171875 45.78125 1.171875 C 43.445312 1.171875 41.585938 0.535156 40.203125 -0.734375 C 38.816406 -2.015625 38.125 -3.691406 38.125 -5.765625 C 38.125 -6.890625 38.273438 -8.003906 38.578125 -9.109375 C 38.878906 -10.210938 39.253906 -11.207031 39.703125 -12.09375 C 40.160156 -12.976562 40.679688 -13.691406 41.265625 -14.234375 C 41.847656 -14.773438 42.445312 -15.046875 43.0625 -15.046875 C 43.445312 -15.046875 43.679688 -14.976562 43.765625 -14.84375 C 43.859375 -14.71875 43.988281 -14.222656 44.15625 -13.359375 C 44.238281 -13.015625 44.410156 -12.722656 44.671875 -12.484375 C 44.929688 -12.242188 45.210938 -12.125 45.515625 -12.125 C 46.296875 -12.125 47 -12.566406 47.625 -13.453125 C 48.25 -14.335938 48.5625 -15.34375 48.5625 -16.46875 C 48.5625 -17.851562 48.0625 -18.910156 47.0625 -19.640625 C 46.070312 -20.378906 44.648438 -20.75 42.796875 -20.75 Z M 43.1875 -26.203125 C 45.082031 -26.203125 46.664062 -26.75 47.9375 -27.84375 C 49.21875 -28.945312 49.859375 -30.320312 49.859375 -31.96875 C 49.859375 -33.875 48.710938 -35.0625 46.421875 -35.53125 C 45.816406 -34.625 45.203125 -33.347656 44.578125 -31.703125 C 43.953125 -30.066406 43.378906 -28.234375 42.859375 -26.203125 Z M 43.1875 -26.203125 "/></g></g></g></g><g fill="#ef0061" fill-opacity="1"><g transform="translate(58.272731, 56.251159)"><g><path d="M 4.609375 -16.984375 C 4.816406 -17.984375 4.921875 -18.675781 4.921875 -19.0625 C 4.921875 -19.96875 4.425781 -20.703125 3.4375 -21.265625 C 6.457031 -23.773438 9.332031 -25.03125 12.0625 -25.03125 C 13.1875 -25.03125 14.082031 -24.75 14.75 -24.1875 C 15.414062 -23.625 15.75 -22.847656 15.75 -21.859375 C 15.75 -21.503906 15.75 -21.257812 15.75 -21.125 C 15.75 -21 15.707031 -20.832031 15.625 -20.625 L 13.421875 -10.3125 C 13.335938 -9.96875 13.269531 -9.644531 13.21875 -9.34375 C 13.175781 -9.039062 13.15625 -8.78125 13.15625 -8.5625 C 13.15625 -7.914062 13.328125 -7.394531 13.671875 -7 C 14.023438 -6.613281 14.503906 -6.421875 15.109375 -6.421875 C 15.367188 -6.421875 15.601562 -6.453125 15.8125 -6.515625 C 16.03125 -6.578125 16.640625 -6.78125 17.640625 -7.125 L 17.890625 -7.125 C 18.546875 -7.125 18.875 -6.757812 18.875 -6.03125 C 18.875 -5.289062 18.523438 -4.53125 17.828125 -3.75 C 17.140625 -2.976562 16.265625 -2.265625 15.203125 -1.609375 C 14.140625 -0.960938 12.984375 -0.425781 11.734375 0 C 10.484375 0.425781 9.296875 0.640625 8.171875 0.640625 C 6.441406 0.640625 5.003906 0.15625 3.859375 -0.8125 C 2.710938 -1.78125 2.140625 -3.019531 2.140625 -4.53125 C 2.140625 -5.1875 2.203125 -5.816406 2.328125 -6.421875 Z M 13.15625 -37.28125 C 14.675781 -37.28125 15.890625 -36.878906 16.796875 -36.078125 C 17.703125 -35.285156 18.15625 -34.238281 18.15625 -32.9375 C 18.15625 -32.15625 17.957031 -31.421875 17.5625 -30.734375 C 17.175781 -30.046875 16.632812 -29.441406 15.9375 -28.921875 C 15.25 -28.398438 14.460938 -27.976562 13.578125 -27.65625 C 12.691406 -27.332031 11.773438 -27.171875 10.828125 -27.171875 C 9.441406 -27.171875 8.335938 -27.554688 7.515625 -28.328125 C 6.703125 -29.109375 6.296875 -30.148438 6.296875 -31.453125 C 6.296875 -32.222656 6.476562 -32.953125 6.84375 -33.640625 C 7.207031 -34.335938 7.710938 -34.957031 8.359375 -35.5 C 9.015625 -36.039062 9.75 -36.472656 10.5625 -36.796875 C 11.382812 -37.117188 12.25 -37.28125 13.15625 -37.28125 Z M 13.15625 -37.28125 "/></g></g></g><g fill="#ef0061" fill-opacity="1"><g transform="translate(73.252245, 56.251159)"><g><path d="M 5.125 -16.984375 C 5.207031 -17.585938 5.28125 -18.070312 5.34375 -18.4375 C 5.414062 -18.8125 5.453125 -19.148438 5.453125 -19.453125 C 5.453125 -19.972656 5.351562 -20.375 5.15625 -20.65625 C 4.957031 -20.9375 4.578125 -21.226562 4.015625 -21.53125 C 5.660156 -22.78125 7.175781 -23.695312 8.5625 -24.28125 C 9.945312 -24.863281 11.328125 -25.15625 12.703125 -25.15625 C 15.128906 -25.15625 16.425781 -23.945312 16.59375 -21.53125 C 19.445312 -23.988281 22.410156 -25.21875 25.484375 -25.21875 C 27.210938 -25.21875 28.613281 -24.734375 29.6875 -23.765625 C 30.769531 -22.796875 31.3125 -21.53125 31.3125 -19.96875 C 31.3125 -19.707031 31.289062 -19.414062 31.25 -19.09375 C 31.207031 -18.769531 31.144531 -18.4375 31.0625 -18.09375 L 29.171875 -9.984375 C 29.085938 -9.640625 29.023438 -9.316406 28.984375 -9.015625 C 28.941406 -8.710938 28.921875 -8.472656 28.921875 -8.296875 C 28.921875 -7.046875 29.566406 -6.421875 30.859375 -6.421875 C 30.992188 -6.421875 31.113281 -6.421875 31.21875 -6.421875 C 31.332031 -6.421875 31.460938 -6.441406 31.609375 -6.484375 C 31.765625 -6.523438 31.984375 -6.585938 32.265625 -6.671875 C 32.546875 -6.765625 32.941406 -6.894531 33.453125 -7.0625 L 33.65625 -7.0625 C 34.34375 -7.0625 34.6875 -6.675781 34.6875 -5.90625 C 34.6875 -5.207031 34.335938 -4.476562 33.640625 -3.71875 C 32.953125 -2.96875 32.078125 -2.265625 31.015625 -1.609375 C 29.960938 -0.960938 28.796875 -0.4375 27.515625 -0.03125 C 26.242188 0.375 25.023438 0.578125 23.859375 0.578125 C 22.003906 0.578125 20.546875 0.101562 19.484375 -0.84375 C 18.421875 -1.789062 17.890625 -3.085938 17.890625 -4.734375 C 17.890625 -5.160156 17.957031 -5.613281 18.09375 -6.09375 L 19.515625 -12.96875 C 19.648438 -13.488281 19.71875 -13.984375 19.71875 -14.453125 C 19.71875 -14.929688 19.550781 -15.332031 19.21875 -15.65625 C 18.894531 -15.976562 18.453125 -16.140625 17.890625 -16.140625 C 16.160156 -16.140625 14.992188 -14.800781 14.390625 -12.125 L 12.640625 -4.34375 C 12.335938 -2.957031 11.765625 -1.882812 10.921875 -1.125 C 10.078125 -0.375 9.09375 0 7.96875 0 L 5.25 0 C 4.300781 0 3.523438 0.101562 2.921875 0.3125 C 2.316406 0.53125 1.6875 0.921875 1.03125 1.484375 Z M 5.125 -16.984375 "/></g></g></g><g fill="#ef0061" fill-opacity="1"><g transform="translate(103.989661, 56.251159)"><g><path d="M 27.296875 -4.078125 C 26.953125 -2.703125 26.582031 -1.441406 26.1875 -0.296875 C 25.800781 0.847656 25.359375 1.90625 24.859375 2.875 C 24.367188 3.851562 23.832031 4.753906 23.25 5.578125 C 22.664062 6.398438 21.984375 7.195312 21.203125 7.96875 C 19.429688 9.789062 17.460938 11.1875 15.296875 12.15625 C 13.140625 13.125 10.894531 13.609375 8.5625 13.609375 C 5.96875 13.609375 3.835938 12.972656 2.171875 11.703125 C 0.503906 10.429688 -0.328125 8.800781 -0.328125 6.8125 C -0.328125 5.425781 0.0234375 4.253906 0.734375 3.296875 C 1.453125 2.347656 2.632812 1.441406 4.28125 0.578125 C 4.363281 1.835938 4.804688 2.832031 5.609375 3.5625 C 6.410156 4.300781 7.394531 4.671875 8.5625 4.671875 C 9.726562 4.671875 10.925781 4.320312 12.15625 3.625 C 13.382812 2.9375 14.367188 2.050781 15.109375 0.96875 C 15.628906 0.238281 16.039062 -0.523438 16.34375 -1.328125 C 16.644531 -2.128906 17.007812 -3.304688 17.4375 -4.859375 C 16.488281 -3.828125 15.625 -2.953125 14.84375 -2.234375 C 14.070312 -1.523438 13.335938 -0.941406 12.640625 -0.484375 C 11.953125 -0.0351562 11.269531 0.285156 10.59375 0.484375 C 9.925781 0.679688 9.25 0.78125 8.5625 0.78125 C 6.394531 0.78125 4.707031 -0.171875 3.5 -2.078125 C 3.019531 -2.847656 2.648438 -3.71875 2.390625 -4.6875 C 2.140625 -5.664062 2.015625 -6.65625 2.015625 -7.65625 C 2.015625 -9.851562 2.421875 -11.988281 3.234375 -14.0625 C 4.054688 -16.144531 5.148438 -17.992188 6.515625 -19.609375 C 7.878906 -21.234375 9.445312 -22.539062 11.21875 -23.53125 C 12.988281 -24.53125 14.804688 -25.03125 16.671875 -25.03125 C 17.785156 -25.03125 18.785156 -24.820312 19.671875 -24.40625 C 20.566406 -24 21.570312 -23.300781 22.6875 -22.3125 C 23.988281 -23.257812 25.070312 -23.925781 25.9375 -24.3125 C 26.800781 -24.707031 27.644531 -24.90625 28.46875 -24.90625 C 29.332031 -24.90625 30.019531 -24.644531 30.53125 -24.125 C 31.050781 -23.601562 31.3125 -22.929688 31.3125 -22.109375 C 31.3125 -21.847656 31.300781 -21.628906 31.28125 -21.453125 C 31.257812 -21.285156 31.226562 -21.09375 31.1875 -20.875 Z M 17.96875 -18.28125 C 17.488281 -18.28125 17.03125 -18.148438 16.59375 -17.890625 C 16.164062 -17.628906 15.765625 -17.28125 15.390625 -16.84375 C 15.023438 -16.414062 14.722656 -15.929688 14.484375 -15.390625 C 14.253906 -14.859375 14.117188 -14.3125 14.078125 -13.75 C 14.023438 -13.050781 14.191406 -12.484375 14.578125 -12.046875 C 14.972656 -11.617188 15.472656 -11.40625 16.078125 -11.40625 C 16.597656 -11.40625 17.09375 -11.535156 17.5625 -11.796875 C 18.039062 -12.054688 18.460938 -12.410156 18.828125 -12.859375 C 19.203125 -13.316406 19.492188 -13.828125 19.703125 -14.390625 C 19.921875 -14.953125 20.03125 -15.535156 20.03125 -16.140625 C 20.03125 -16.742188 19.835938 -17.25 19.453125 -17.65625 C 19.066406 -18.070312 18.570312 -18.28125 17.96875 -18.28125 Z M 17.96875 -18.28125 "/></g></g></g><g fill="#ef0061" fill-opacity="1"><g transform="translate(132.068334, 56.251159)"><g><path d="M 17.125 -24.96875 C 20.445312 -24.96875 23.082031 -24.023438 25.03125 -22.140625 C 26.976562 -20.265625 27.953125 -17.726562 27.953125 -14.53125 C 27.953125 -12.40625 27.550781 -10.410156 26.75 -8.546875 C 25.945312 -6.691406 24.84375 -5.082031 23.4375 -3.71875 C 22.03125 -2.363281 20.382812 -1.285156 18.5 -0.484375 C 16.625 0.316406 14.609375 0.71875 12.453125 0.71875 C 9.210938 0.71875 6.628906 -0.273438 4.703125 -2.265625 C 2.773438 -4.253906 1.8125 -6.9375 1.8125 -10.3125 C 1.8125 -12.257812 2.222656 -14.117188 3.046875 -15.890625 C 3.867188 -17.660156 4.984375 -19.210938 6.390625 -20.546875 C 7.796875 -21.890625 9.425781 -22.960938 11.28125 -23.765625 C 13.144531 -24.566406 15.09375 -24.96875 17.125 -24.96875 Z M 16.40625 -18.546875 C 15.5 -18.546875 14.6875 -18.101562 13.96875 -17.21875 C 13.257812 -16.332031 12.90625 -15.328125 12.90625 -14.203125 C 12.90625 -13.421875 13.109375 -12.769531 13.515625 -12.25 C 13.929688 -11.738281 14.441406 -11.484375 15.046875 -11.484375 C 15.992188 -11.484375 16.820312 -11.925781 17.53125 -12.8125 C 18.25 -13.695312 18.609375 -14.722656 18.609375 -15.890625 C 18.609375 -16.660156 18.398438 -17.296875 17.984375 -17.796875 C 17.578125 -18.296875 17.050781 -18.546875 16.40625 -18.546875 Z M 16.40625 -18.546875 "/></g></g></g><g fill="#ef0061" fill-opacity="1"><g transform="translate(157.293734, 56.251159)"><g><path d="M 34.359375 -30.015625 C 35.015625 -30.015625 35.34375 -29.710938 35.34375 -29.109375 C 35.34375 -28.335938 34.960938 -27.539062 34.203125 -26.71875 C 33.441406 -25.894531 32.476562 -25.125 31.3125 -24.40625 C 30.144531 -23.695312 28.867188 -23.113281 27.484375 -22.65625 C 26.109375 -22.207031 24.789062 -21.984375 23.53125 -21.984375 C 22.320312 -21.984375 21.175781 -22.238281 20.09375 -22.75 C 19.019531 -23.269531 18.070312 -23.960938 17.25 -24.828125 C 16.425781 -25.691406 15.773438 -26.695312 15.296875 -27.84375 C 14.828125 -28.988281 14.59375 -30.210938 14.59375 -31.515625 C 14.59375 -33.203125 14.976562 -34.800781 15.75 -36.3125 C 16.53125 -37.820312 17.566406 -39.160156 18.859375 -40.328125 C 20.160156 -41.492188 21.675781 -42.410156 23.40625 -43.078125 C 25.132812 -43.753906 26.953125 -44.09375 28.859375 -44.09375 C 30.546875 -44.09375 32.273438 -43.863281 34.046875 -43.40625 C 35.816406 -42.957031 37.890625 -42.191406 40.265625 -41.109375 C 41.171875 -40.722656 41.9375 -40.410156 42.5625 -40.171875 C 43.195312 -39.929688 43.769531 -39.734375 44.28125 -39.578125 C 44.800781 -39.429688 45.300781 -39.335938 45.78125 -39.296875 C 46.257812 -39.253906 46.753906 -39.234375 47.265625 -39.234375 C 47.484375 -39.234375 47.734375 -39.242188 48.015625 -39.265625 C 48.296875 -39.285156 48.585938 -39.316406 48.890625 -39.359375 C 49.234375 -39.398438 49.554688 -39.429688 49.859375 -39.453125 C 50.160156 -39.472656 50.398438 -39.484375 50.578125 -39.484375 C 51.097656 -39.484375 51.519531 -39.300781 51.84375 -38.9375 C 52.164062 -38.570312 52.328125 -38.066406 52.328125 -37.421875 C 52.328125 -37.066406 52.296875 -36.757812 52.234375 -36.5 C 52.171875 -36.25 51.960938 -35.5625 51.609375 -34.4375 C 51.398438 -33.738281 51.226562 -32.957031 51.09375 -32.09375 C 50.96875 -31.226562 50.90625 -30.429688 50.90625 -29.703125 C 50.90625 -29.222656 50.914062 -28.644531 50.9375 -27.96875 C 50.957031 -27.300781 51.007812 -26.5625 51.09375 -25.75 C 51.175781 -24.664062 51.226562 -23.832031 51.25 -23.25 C 51.28125 -22.664062 51.296875 -21.921875 51.296875 -21.015625 C 52.109375 -22.609375 52.894531 -24.039062 53.65625 -25.3125 C 54.414062 -26.59375 55.171875 -27.769531 55.921875 -28.84375 C 56.679688 -29.925781 57.460938 -30.921875 58.265625 -31.828125 C 59.066406 -32.742188 59.941406 -33.65625 60.890625 -34.5625 C 63.003906 -36.550781 65.085938 -38.140625 67.140625 -39.328125 C 69.191406 -40.515625 70.910156 -41.109375 72.296875 -41.109375 C 72.941406 -41.109375 73.46875 -40.9375 73.875 -40.59375 C 74.289062 -40.25 74.5 -39.816406 74.5 -39.296875 C 74.5 -38.859375 74.421875 -38.457031 74.265625 -38.09375 C 74.117188 -37.726562 73.785156 -37.09375 73.265625 -36.1875 C 72.878906 -35.53125 72.476562 -34.757812 72.0625 -33.875 C 71.65625 -32.988281 71.242188 -32.0625 70.828125 -31.09375 C 70.421875 -30.125 70.023438 -29.140625 69.640625 -28.140625 C 69.253906 -27.148438 68.929688 -26.222656 68.671875 -25.359375 C 68.234375 -23.972656 67.894531 -22.53125 67.65625 -21.03125 C 67.425781 -19.539062 67.3125 -18.109375 67.3125 -16.734375 C 67.3125 -15.265625 67.535156 -14.050781 67.984375 -13.09375 C 68.441406 -12.144531 69.035156 -11.671875 69.765625 -11.671875 C 70.117188 -11.671875 70.445312 -11.757812 70.75 -11.9375 C 71.3125 -12.1875 71.742188 -12.3125 72.046875 -12.3125 C 72.347656 -12.3125 72.59375 -12.160156 72.78125 -11.859375 C 72.976562 -11.554688 73.078125 -11.171875 73.078125 -10.703125 C 73.078125 -9.796875 72.859375 -8.710938 72.421875 -7.453125 C 71.992188 -6.203125 71.410156 -5.035156 70.671875 -3.953125 C 69.554688 -2.304688 68.226562 -1.03125 66.6875 -0.125 C 65.15625 0.78125 63.566406 1.234375 61.921875 1.234375 C 60.148438 1.234375 58.734375 0.476562 57.671875 -1.03125 C 56.617188 -2.550781 56.09375 -4.609375 56.09375 -7.203125 C 56.09375 -10.441406 56.585938 -13.671875 57.578125 -16.890625 C 58.578125 -20.109375 60.195312 -23.6875 62.4375 -27.625 C 61.320312 -26.84375 60.132812 -25.476562 58.875 -23.53125 C 57.625 -21.59375 56.175781 -18.9375 54.53125 -15.5625 C 54.050781 -14.613281 53.640625 -13.789062 53.296875 -13.09375 C 52.953125 -12.40625 52.609375 -11.75 52.265625 -11.125 C 51.921875 -10.5 51.5625 -9.859375 51.1875 -9.203125 C 50.820312 -8.554688 50.378906 -7.84375 49.859375 -7.0625 C 49.128906 -5.851562 48.484375 -5.007812 47.921875 -4.53125 C 47.359375 -4.0625 46.753906 -3.828125 46.109375 -3.828125 C 44.941406 -3.828125 44.359375 -4.519531 44.359375 -5.90625 C 44.359375 -6.25 44.367188 -6.5625 44.390625 -6.84375 C 44.410156 -7.125 44.484375 -7.738281 44.609375 -8.6875 C 44.648438 -8.90625 44.679688 -9.316406 44.703125 -9.921875 C 44.722656 -10.523438 44.753906 -11.171875 44.796875 -11.859375 C 44.847656 -12.554688 44.882812 -13.21875 44.90625 -13.84375 C 44.925781 -14.46875 44.9375 -14.953125 44.9375 -15.296875 C 44.9375 -15.816406 44.925781 -16.390625 44.90625 -17.015625 C 44.882812 -17.648438 44.851562 -18.375 44.8125 -19.1875 C 44.71875 -20.050781 44.660156 -20.882812 44.640625 -21.6875 C 44.617188 -22.488281 44.609375 -23.0625 44.609375 -23.40625 C 44.609375 -24.144531 44.628906 -24.75 44.671875 -25.21875 C 44.710938 -25.695312 44.78125 -26.367188 44.875 -27.234375 C 44.613281 -26.847656 44.351562 -26.296875 44.09375 -25.578125 C 43.832031 -24.867188 43.503906 -23.863281 43.109375 -22.5625 C 42.722656 -21.269531 42.25 -19.59375 41.6875 -17.53125 C 41.125 -15.476562 40.457031 -12.941406 39.6875 -9.921875 C 38.945312 -7.453125 37.9375 -5.113281 36.65625 -2.90625 C 35.382812 -0.707031 33.972656 1.101562 32.421875 2.53125 C 30.472656 4.300781 28.203125 5.679688 25.609375 6.671875 C 23.015625 7.671875 20.378906 8.171875 17.703125 8.171875 C 15.328125 8.171875 13.078125 7.75 10.953125 6.90625 C 8.835938 6.0625 7.085938 4.90625 5.703125 3.4375 C 3.628906 1.226562 2.59375 -1.582031 2.59375 -5 C 2.59375 -10.226562 4.773438 -14.242188 9.140625 -17.046875 C 12.296875 -19.078125 15.671875 -20.09375 19.265625 -20.09375 C 20.816406 -20.09375 22.035156 -19.898438 22.921875 -19.515625 C 23.804688 -19.128906 24.25 -18.585938 24.25 -17.890625 C 24.25 -17.585938 24.191406 -17.359375 24.078125 -17.203125 C 23.972656 -17.054688 23.707031 -16.8125 23.28125 -16.46875 C 22.882812 -16.125 22.554688 -15.734375 22.296875 -15.296875 C 22.046875 -14.867188 21.921875 -14.4375 21.921875 -14 C 21.921875 -13.132812 22.304688 -12.390625 23.078125 -11.765625 C 23.859375 -11.140625 24.8125 -10.828125 25.9375 -10.828125 C 26.882812 -10.828125 27.75 -11.007812 28.53125 -11.375 C 29.3125 -11.75 30.085938 -12.390625 30.859375 -13.296875 C 31.640625 -14.203125 32.441406 -15.410156 33.265625 -16.921875 C 34.085938 -18.429688 35.015625 -20.332031 36.046875 -22.625 C 36.828125 -24.351562 37.429688 -25.710938 37.859375 -26.703125 C 38.296875 -27.703125 38.695312 -28.535156 39.0625 -29.203125 C 39.4375 -29.878906 39.804688 -30.488281 40.171875 -31.03125 C 40.535156 -31.570312 41.039062 -32.273438 41.6875 -33.140625 C 38.882812 -33.867188 36.851562 -34.234375 35.59375 -34.234375 C 34.5625 -34.234375 33.6875 -33.960938 32.96875 -33.421875 C 32.257812 -32.878906 31.90625 -32.242188 31.90625 -31.515625 C 31.90625 -31.035156 32.035156 -30.65625 32.296875 -30.375 C 32.554688 -30.09375 32.898438 -29.953125 33.328125 -29.953125 C 33.410156 -29.953125 33.503906 -29.953125 33.609375 -29.953125 C 33.722656 -29.953125 33.867188 -29.972656 34.046875 -30.015625 Z M 34.359375 -30.015625 "/></g></g></g><g fill="#ef0061" fill-opacity="1"><g transform="translate(227.393488, 56.251159)"><g><path d="M 28.65625 -10.3125 C 28.445312 -9.3125 28.34375 -8.617188 28.34375 -8.234375 C 28.34375 -7.710938 28.523438 -7.269531 28.890625 -6.90625 C 29.253906 -6.539062 29.675781 -6.359375 30.15625 -6.359375 C 30.5 -6.359375 30.953125 -6.460938 31.515625 -6.671875 C 32.160156 -6.929688 32.632812 -7.0625 32.9375 -7.0625 C 33.238281 -7.0625 33.5 -6.953125 33.71875 -6.734375 C 33.9375 -6.523438 34.046875 -6.269531 34.046875 -5.96875 C 34.046875 -5.226562 33.6875 -4.46875 32.96875 -3.6875 C 32.257812 -2.914062 31.351562 -2.203125 30.25 -1.546875 C 29.144531 -0.898438 27.929688 -0.363281 26.609375 0.0625 C 25.296875 0.5 24.035156 0.71875 22.828125 0.71875 C 21.316406 0.71875 20.09375 0.328125 19.15625 -0.453125 C 18.226562 -1.234375 17.722656 -2.316406 17.640625 -3.703125 C 16.128906 -2.316406 14.519531 -1.234375 12.8125 -0.453125 C 11.101562 0.328125 9.535156 0.71875 8.109375 0.71875 C 6.421875 0.71875 5.003906 0.222656 3.859375 -0.765625 C 2.710938 -1.765625 2.140625 -2.976562 2.140625 -4.40625 C 2.140625 -4.582031 2.148438 -4.765625 2.171875 -4.953125 C 2.191406 -5.148438 2.222656 -5.359375 2.265625 -5.578125 L 4.671875 -17.125 C 4.796875 -17.6875 4.859375 -18.222656 4.859375 -18.734375 C 4.859375 -19.296875 4.75 -19.738281 4.53125 -20.0625 C 4.320312 -20.394531 3.914062 -20.734375 3.3125 -21.078125 C 4.78125 -22.285156 6.269531 -23.222656 7.78125 -23.890625 C 9.289062 -24.566406 10.675781 -24.90625 11.9375 -24.90625 C 13.101562 -24.90625 14.019531 -24.585938 14.6875 -23.953125 C 15.351562 -23.328125 15.6875 -22.453125 15.6875 -21.328125 C 15.6875 -20.898438 15.664062 -20.617188 15.625 -20.484375 L 13.75 -11.484375 C 13.613281 -10.960938 13.546875 -10.503906 13.546875 -10.109375 C 13.546875 -9.640625 13.707031 -9.253906 14.03125 -8.953125 C 14.363281 -8.648438 14.785156 -8.5 15.296875 -8.5 C 16.210938 -8.5 16.945312 -8.8125 17.5 -9.4375 C 18.0625 -10.0625 18.519531 -11.066406 18.875 -12.453125 L 19.96875 -17.125 C 20.050781 -17.46875 20.113281 -17.769531 20.15625 -18.03125 C 20.207031 -18.289062 20.234375 -18.546875 20.234375 -18.796875 C 20.273438 -19.316406 20.164062 -19.738281 19.90625 -20.0625 C 19.644531 -20.394531 19.171875 -20.734375 18.484375 -21.078125 C 20.171875 -22.410156 21.710938 -23.378906 23.109375 -23.984375 C 24.515625 -24.597656 25.910156 -24.90625 27.296875 -24.90625 C 28.421875 -24.90625 29.316406 -24.597656 29.984375 -23.984375 C 30.660156 -23.378906 31 -22.5625 31 -21.53125 C 31 -21.269531 30.953125 -20.921875 30.859375 -20.484375 Z M 28.65625 -10.3125 "/></g></g></g><g fill="#ef0061" fill-opacity="1"><g transform="translate(257.547287, 56.251159)"><g><path d="M 14.90625 -25.03125 C 16.332031 -25.03125 17.648438 -24.890625 18.859375 -24.609375 C 20.078125 -24.328125 21.128906 -23.945312 22.015625 -23.46875 C 22.898438 -23 23.585938 -22.425781 24.078125 -21.75 C 24.578125 -21.082031 24.828125 -20.359375 24.828125 -19.578125 C 24.828125 -18.710938 24.515625 -17.96875 23.890625 -17.34375 C 23.265625 -16.71875 22.519531 -16.40625 21.65625 -16.40625 C 21.050781 -16.40625 20.488281 -16.554688 19.96875 -16.859375 C 19.445312 -17.160156 18.753906 -17.703125 17.890625 -18.484375 C 16.859375 -19.515625 15.992188 -20.03125 15.296875 -20.03125 C 14.953125 -20.03125 14.660156 -19.921875 14.421875 -19.703125 C 14.191406 -19.492188 14.078125 -19.238281 14.078125 -18.9375 C 14.078125 -18.675781 14.117188 -18.445312 14.203125 -18.25 C 14.285156 -18.0625 14.46875 -17.847656 14.75 -17.609375 C 15.03125 -17.367188 15.453125 -17.070312 16.015625 -16.71875 C 16.578125 -16.375 17.351562 -15.945312 18.34375 -15.4375 C 21.675781 -13.570312 23.34375 -11.34375 23.34375 -8.75 C 23.34375 -7.320312 23.03125 -6.023438 22.40625 -4.859375 C 21.78125 -3.691406 20.90625 -2.6875 19.78125 -1.84375 C 18.65625 -1 17.3125 -0.351562 15.75 0.09375 C 14.195312 0.550781 12.46875 0.78125 10.5625 0.78125 C 9.007812 0.78125 7.59375 0.617188 6.3125 0.296875 C 5.039062 -0.0234375 3.953125 -0.46875 3.046875 -1.03125 C 2.140625 -1.59375 1.4375 -2.273438 0.9375 -3.078125 C 0.4375 -3.878906 0.1875 -4.773438 0.1875 -5.765625 C 0.1875 -6.929688 0.566406 -7.914062 1.328125 -8.71875 C 2.085938 -9.519531 3.03125 -9.921875 4.15625 -9.921875 C 5.363281 -9.921875 6.550781 -9.46875 7.71875 -8.5625 C 7.800781 -8.46875 8.003906 -8.25 8.328125 -7.90625 C 8.648438 -7.5625 9.070312 -7.085938 9.59375 -6.484375 C 10.675781 -5.316406 11.691406 -4.734375 12.640625 -4.734375 C 13.035156 -4.734375 13.375 -4.875 13.65625 -5.15625 C 13.9375 -5.4375 14.078125 -5.769531 14.078125 -6.15625 C 14.078125 -6.375 14.03125 -6.566406 13.9375 -6.734375 C 13.851562 -6.910156 13.679688 -7.117188 13.421875 -7.359375 C 13.160156 -7.597656 12.78125 -7.890625 12.28125 -8.234375 C 11.789062 -8.578125 11.132812 -9.007812 10.3125 -9.53125 C 9.144531 -10.269531 8.191406 -10.941406 7.453125 -11.546875 C 6.722656 -12.148438 6.128906 -12.734375 5.671875 -13.296875 C 5.222656 -13.859375 4.910156 -14.441406 4.734375 -15.046875 C 4.554688 -15.648438 4.46875 -16.34375 4.46875 -17.125 C 4.46875 -18.195312 4.75 -19.207031 5.3125 -20.15625 C 5.875 -21.113281 6.617188 -21.945312 7.546875 -22.65625 C 8.484375 -23.375 9.585938 -23.945312 10.859375 -24.375 C 12.140625 -24.8125 13.488281 -25.03125 14.90625 -25.03125 Z M 14.90625 -25.03125 "/></g></g></g><g fill="#ef0061" fill-opacity="1"><g transform="translate(279.141224, 56.251159)"><g><path d="M 4.609375 -16.984375 C 4.816406 -17.984375 4.921875 -18.675781 4.921875 -19.0625 C 4.921875 -19.96875 4.425781 -20.703125 3.4375 -21.265625 C 6.457031 -23.773438 9.332031 -25.03125 12.0625 -25.03125 C 13.1875 -25.03125 14.082031 -24.75 14.75 -24.1875 C 15.414062 -23.625 15.75 -22.847656 15.75 -21.859375 C 15.75 -21.503906 15.75 -21.257812 15.75 -21.125 C 15.75 -21 15.707031 -20.832031 15.625 -20.625 L 13.421875 -10.3125 C 13.335938 -9.96875 13.269531 -9.644531 13.21875 -9.34375 C 13.175781 -9.039062 13.15625 -8.78125 13.15625 -8.5625 C 13.15625 -7.914062 13.328125 -7.394531 13.671875 -7 C 14.023438 -6.613281 14.503906 -6.421875 15.109375 -6.421875 C 15.367188 -6.421875 15.601562 -6.453125 15.8125 -6.515625 C 16.03125 -6.578125 16.640625 -6.78125 17.640625 -7.125 L 17.890625 -7.125 C 18.546875 -7.125 18.875 -6.757812 18.875 -6.03125 C 18.875 -5.289062 18.523438 -4.53125 17.828125 -3.75 C 17.140625 -2.976562 16.265625 -2.265625 15.203125 -1.609375 C 14.140625 -0.960938 12.984375 -0.425781 11.734375 0 C 10.484375 0.425781 9.296875 0.640625 8.171875 0.640625 C 6.441406 0.640625 5.003906 0.15625 3.859375 -0.8125 C 2.710938 -1.78125 2.140625 -3.019531 2.140625 -4.53125 C 2.140625 -5.1875 2.203125 -5.816406 2.328125 -6.421875 Z M 13.15625 -37.28125 C 14.675781 -37.28125 15.890625 -36.878906 16.796875 -36.078125 C 17.703125 -35.285156 18.15625 -34.238281 18.15625 -32.9375 C 18.15625 -32.15625 17.957031 -31.421875 17.5625 -30.734375 C 17.175781 -30.046875 16.632812 -29.441406 15.9375 -28.921875 C 15.25 -28.398438 14.460938 -27.976562 13.578125 -27.65625 C 12.691406 -27.332031 11.773438 -27.171875 10.828125 -27.171875 C 9.441406 -27.171875 8.335938 -27.554688 7.515625 -28.328125 C 6.703125 -29.109375 6.296875 -30.148438 6.296875 -31.453125 C 6.296875 -32.222656 6.476562 -32.953125 6.84375 -33.640625 C 7.207031 -34.335938 7.710938 -34.957031 8.359375 -35.5 C 9.015625 -36.039062 9.75 -36.472656 10.5625 -36.796875 C 11.382812 -37.117188 12.25 -37.28125 13.15625 -37.28125 Z M 13.15625 -37.28125 "/></g></g></g><g fill="#ef0061" fill-opacity="1"><g transform="translate(294.12075, 56.251159)"><g><path d="M 18.15625 -20.484375 C 14.957031 -19.316406 13.359375 -17.113281 13.359375 -13.875 C 13.359375 -12.0625 13.875 -10.625 14.90625 -9.5625 C 15.945312 -8.5 17.351562 -7.96875 19.125 -7.96875 C 19.5625 -7.96875 19.921875 -7.976562 20.203125 -8 C 20.484375 -8.03125 20.785156 -8.085938 21.109375 -8.171875 C 21.429688 -8.253906 21.835938 -8.414062 22.328125 -8.65625 C 22.828125 -8.894531 23.535156 -9.207031 24.453125 -9.59375 C 24.753906 -9.726562 25.066406 -9.828125 25.390625 -9.890625 C 25.710938 -9.953125 26.003906 -9.984375 26.265625 -9.984375 C 27.335938 -9.984375 27.875 -9.421875 27.875 -8.296875 C 27.875 -7.085938 26.773438 -5.53125 24.578125 -3.625 C 20.984375 -0.5625 17.203125 0.96875 13.234375 0.96875 C 11.671875 0.96875 10.195312 0.6875 8.8125 0.125 C 7.4375 -0.4375 6.226562 -1.210938 5.1875 -2.203125 C 4.144531 -3.203125 3.320312 -4.359375 2.71875 -5.671875 C 2.113281 -6.992188 1.8125 -8.410156 1.8125 -9.921875 C 1.8125 -11.953125 2.253906 -13.894531 3.140625 -15.75 C 4.023438 -17.613281 5.210938 -19.25 6.703125 -20.65625 C 8.203125 -22.0625 9.921875 -23.179688 11.859375 -24.015625 C 13.804688 -24.859375 15.863281 -25.28125 18.03125 -25.28125 C 20.625 -25.28125 22.738281 -24.65625 24.375 -23.40625 C 26.019531 -22.15625 26.84375 -20.554688 26.84375 -18.609375 C 26.84375 -17.097656 26.332031 -15.84375 25.3125 -14.84375 C 24.300781 -13.851562 23.039062 -13.359375 21.53125 -13.359375 C 20.269531 -13.359375 19.226562 -13.742188 18.40625 -14.515625 C 17.59375 -15.296875 17.1875 -16.316406 17.1875 -17.578125 C 17.1875 -18.046875 17.257812 -18.492188 17.40625 -18.921875 C 17.5625 -19.359375 17.8125 -19.878906 18.15625 -20.484375 Z M 18.15625 -20.484375 "/></g></g></g><g fill="#ef0061" fill-opacity="1"><g transform="translate(318.178892, 56.251159)"><g><path d="M 28.53125 -10.375 C 28.269531 -9.25 28.140625 -8.492188 28.140625 -8.109375 C 28.140625 -7.628906 28.320312 -7.21875 28.6875 -6.875 C 29.0625 -6.53125 29.53125 -6.359375 30.09375 -6.359375 C 30.5625 -6.359375 30.992188 -6.441406 31.390625 -6.609375 C 32.296875 -6.867188 32.789062 -7 32.875 -7 C 33.175781 -7 33.4375 -6.890625 33.65625 -6.671875 C 33.875 -6.460938 33.984375 -6.179688 33.984375 -5.828125 C 33.984375 -5.140625 33.625 -4.414062 32.90625 -3.65625 C 32.195312 -2.90625 31.300781 -2.203125 30.21875 -1.546875 C 29.132812 -0.898438 27.953125 -0.363281 26.671875 0.0625 C 25.398438 0.5 24.203125 0.71875 23.078125 0.71875 C 21.566406 0.71875 20.3125 0.222656 19.3125 -0.765625 C 18.320312 -1.765625 17.828125 -3.019531 17.828125 -4.53125 C 17.828125 -4.75 17.828125 -4.976562 17.828125 -5.21875 C 17.828125 -5.457031 17.847656 -5.726562 17.890625 -6.03125 C 17.328125 -5.34375 16.875 -4.78125 16.53125 -4.34375 C 16.1875 -3.914062 15.882812 -3.546875 15.625 -3.234375 C 15.363281 -2.929688 15.113281 -2.671875 14.875 -2.453125 C 14.644531 -2.242188 14.398438 -2.007812 14.140625 -1.75 C 13.316406 -0.925781 12.382812 -0.289062 11.34375 0.15625 C 10.3125 0.613281 9.335938 0.84375 8.421875 0.84375 C 6.484375 0.84375 4.894531 0.046875 3.65625 -1.546875 C 2.425781 -3.148438 1.8125 -5.207031 1.8125 -7.71875 C 1.8125 -9.875 2.222656 -11.988281 3.046875 -14.0625 C 3.867188 -16.144531 4.9375 -17.992188 6.25 -19.609375 C 7.570312 -21.234375 9.085938 -22.53125 10.796875 -23.5 C 12.503906 -24.476562 14.265625 -24.96875 16.078125 -24.96875 C 18.628906 -24.96875 20.726562 -24.035156 22.375 -22.171875 C 23.144531 -22.734375 23.8125 -23.1875 24.375 -23.53125 C 24.9375 -23.882812 25.429688 -24.15625 25.859375 -24.34375 C 26.296875 -24.539062 26.695312 -24.671875 27.0625 -24.734375 C 27.4375 -24.796875 27.835938 -24.828125 28.265625 -24.828125 C 29.128906 -24.828125 29.832031 -24.597656 30.375 -24.140625 C 30.914062 -23.691406 31.164062 -23.125 31.125 -22.4375 C 31.125 -22 31.0625 -21.566406 30.9375 -21.140625 Z M 17.703125 -18.21875 C 16.753906 -18.21875 15.921875 -17.796875 15.203125 -16.953125 C 14.492188 -16.109375 14.140625 -15.148438 14.140625 -14.078125 C 14.140625 -12.429688 14.851562 -11.609375 16.28125 -11.609375 C 16.707031 -11.609375 17.125 -11.738281 17.53125 -12 C 17.945312 -12.257812 18.316406 -12.601562 18.640625 -13.03125 C 18.960938 -13.46875 19.222656 -13.953125 19.421875 -14.484375 C 19.617188 -15.023438 19.71875 -15.597656 19.71875 -16.203125 C 19.71875 -17.546875 19.046875 -18.21875 17.703125 -18.21875 Z M 17.703125 -18.21875 "/></g></g></g><g fill="#ef0061" fill-opacity="1"><g transform="translate(348.20298, 56.251159)"><g><path d="M 7.84375 -32.75 C 7.976562 -33.4375 8.046875 -34.0625 8.046875 -34.625 C 8.046875 -35.226562 7.945312 -35.671875 7.75 -35.953125 C 7.550781 -36.234375 7.171875 -36.484375 6.609375 -36.703125 C 7.867188 -37.910156 9.265625 -38.859375 10.796875 -39.546875 C 12.328125 -40.242188 13.785156 -40.59375 15.171875 -40.59375 C 16.335938 -40.59375 17.273438 -40.289062 17.984375 -39.6875 C 18.703125 -39.082031 19.0625 -38.28125 19.0625 -37.28125 C 19.0625 -37.0625 19.050781 -36.851562 19.03125 -36.65625 C 19.007812 -36.46875 18.976562 -36.265625 18.9375 -36.046875 L 13.09375 -9.46875 C 12.96875 -8.988281 12.90625 -8.554688 12.90625 -8.171875 C 12.90625 -6.960938 13.53125 -6.359375 14.78125 -6.359375 C 15.257812 -6.359375 15.691406 -6.441406 16.078125 -6.609375 C 16.597656 -6.828125 16.953125 -6.957031 17.140625 -7 C 17.335938 -7.039062 17.484375 -7.0625 17.578125 -7.0625 C 17.878906 -7.0625 18.132812 -6.941406 18.34375 -6.703125 C 18.5625 -6.472656 18.671875 -6.179688 18.671875 -5.828125 C 18.671875 -5.097656 18.046875 -4.148438 16.796875 -2.984375 C 15.535156 -1.859375 14.128906 -0.972656 12.578125 -0.328125 C 11.023438 0.316406 9.46875 0.640625 7.90625 0.640625 C 6.09375 0.640625 4.625 0.144531 3.5 -0.84375 C 2.375 -1.832031 1.8125 -3.148438 1.8125 -4.796875 C 1.8125 -5.273438 1.878906 -5.816406 2.015625 -6.421875 Z M 7.84375 -32.75 "/></g></g></g></g></g><g transform="matrix(1, 0, 0, 1, 315, 203)"><g clip-path="url(#9c78b3cbf9)"><g fill="#ef0061" fill-opacity="1"><g transform="translate(1.103235, 15.197891)"><g><path d="M 0.78125 -12.015625 C 0.78125 -12.367188 0.738281 -12.710938 0.65625 -13.046875 C 0.570312 -13.390625 0.445312 -13.632812 0.28125 -13.78125 L 7.015625 -13.78125 C 7.492188 -13.78125 7.96875 -13.703125 8.4375 -13.546875 C 8.90625 -13.398438 9.320312 -13.175781 9.6875 -12.875 C 10.0625 -12.582031 10.359375 -12.222656 10.578125 -11.796875 C 10.796875 -11.378906 10.90625 -10.898438 10.90625 -10.359375 C 10.90625 -9.648438 10.710938 -9.023438 10.328125 -8.484375 C 9.941406 -7.953125 9.4375 -7.582031 8.8125 -7.375 C 9.125 -7.375 9.445312 -7.3125 9.78125 -7.1875 C 10.113281 -7.070312 10.425781 -6.878906 10.71875 -6.609375 C 11.007812 -6.347656 11.242188 -6 11.421875 -5.5625 C 11.609375 -5.132812 11.703125 -4.625 11.703125 -4.03125 C 11.703125 -3.332031 11.515625 -2.675781 11.140625 -2.0625 C 10.765625 -1.445312 10.191406 -0.945312 9.421875 -0.5625 C 8.660156 -0.1875 7.695312 0 6.53125 0 L 0.28125 0 C 0.445312 -0.144531 0.570312 -0.390625 0.65625 -0.734375 C 0.738281 -1.078125 0.78125 -1.421875 0.78125 -1.765625 Z M 6.453125 -5.96875 L 4 -5.96875 L 4 -2.6875 L 6.453125 -2.6875 C 7.160156 -2.6875 7.675781 -2.84375 8 -3.15625 C 8.320312 -3.46875 8.484375 -3.859375 8.484375 -4.328125 C 8.484375 -4.804688 8.320312 -5.195312 8 -5.5 C 7.675781 -5.8125 7.160156 -5.96875 6.453125 -5.96875 Z M 4 -11.09375 L 4 -8.53125 L 6.28125 -8.53125 C 6.675781 -8.53125 7.003906 -8.65625 7.265625 -8.90625 C 7.523438 -9.15625 7.65625 -9.457031 7.65625 -9.8125 C 7.65625 -10.164062 7.523438 -10.46875 7.265625 -10.71875 C 7.003906 -10.96875 6.675781 -11.09375 6.28125 -11.09375 Z M 4 -11.09375 "/></g></g></g><g clip-path="url(#c05051df10)"><g fill="#ef0061" fill-opacity="1"><g transform="translate(11.845594, 15.197891)"><g><path d="M 3.140625 0.015625 L 0 -9.984375 L 3 -9.984375 L 4.671875 -4.671875 L 6.390625 -9.984375 L 9.390625 -9.984375 L 4.796875 4.15625 L 1.796875 4.15625 Z M 3.140625 0.015625 "/></g></g></g></g><g fill="#ef0061" fill-opacity="1"><g transform="translate(20.002314, 15.197891)"><g><path d="M 1.5 0 C 1.269531 -0.675781 1.082031 -1.3125 0.9375 -1.90625 C 0.789062 -2.5 0.679688 -3.109375 0.609375 -3.734375 C 0.535156 -4.367188 0.5 -5.070312 0.5 -5.84375 C 0.5 -6.625 0.597656 -7.40625 0.796875 -8.1875 C 0.992188 -8.976562 1.289062 -9.71875 1.6875 -10.40625 C 2.082031 -11.101562 2.566406 -11.71875 3.140625 -12.25 C 3.722656 -12.789062 4.394531 -13.21875 5.15625 -13.53125 C 5.914062 -13.84375 6.757812 -14 7.6875 -14 C 8.132812 -14 8.570312 -13.945312 9 -13.84375 C 9.425781 -13.75 9.804688 -13.601562 10.140625 -13.40625 C 10.472656 -13.21875 10.707031 -12.992188 10.84375 -12.734375 L 10.84375 -1.78125 C 10.84375 -1.425781 10.882812 -1.078125 10.96875 -0.734375 C 11.050781 -0.390625 11.175781 -0.144531 11.34375 0 L 7.125 0 C 7.289062 -0.144531 7.414062 -0.390625 7.5 -0.734375 C 7.582031 -1.078125 7.625 -1.421875 7.625 -1.765625 L 7.625 -4.109375 L 3.796875 -4.109375 C 3.898438 -3.304688 4.085938 -2.566406 4.359375 -1.890625 C 4.640625 -1.222656 5.003906 -0.59375 5.453125 0 Z M 3.8125 -6.828125 L 7.625 -6.828125 L 7.640625 -11.046875 C 7.015625 -11.046875 6.476562 -10.914062 6.03125 -10.65625 C 5.582031 -10.40625 5.203125 -10.066406 4.890625 -9.640625 C 4.585938 -9.222656 4.347656 -8.769531 4.171875 -8.28125 C 4.003906 -7.789062 3.882812 -7.304688 3.8125 -6.828125 Z M 3.8125 -6.828125 "/></g></g></g><g clip-path="url(#00aa7fdc50)"><g fill="#ef0061" fill-opacity="1"><g transform="translate(30.744719, 15.197891)"><g><path d="M -0.578125 -12.890625 C -0.222656 -12.910156 0.15625 -12.972656 0.5625 -13.078125 C 0.96875 -13.191406 1.367188 -13.332031 1.765625 -13.5 C 2.160156 -13.664062 2.53125 -13.835938 2.875 -14.015625 C 3.226562 -14.191406 3.519531 -14.351562 3.75 -14.5 L 3.75 -6.984375 L 5.0625 -10 C 5.195312 -10.050781 5.332031 -10.097656 5.46875 -10.140625 C 5.601562 -10.191406 5.769531 -10.21875 5.96875 -10.21875 C 6.570312 -10.21875 7.097656 -10.078125 7.546875 -9.796875 C 7.992188 -9.523438 8.367188 -9.160156 8.671875 -8.703125 C 8.984375 -8.242188 9.210938 -7.722656 9.359375 -7.140625 C 9.515625 -6.554688 9.59375 -5.953125 9.59375 -5.328125 C 9.59375 -4.679688 9.5 -4.039062 9.3125 -3.40625 C 9.132812 -2.769531 8.859375 -2.191406 8.484375 -1.671875 C 8.117188 -1.160156 7.65625 -0.753906 7.09375 -0.453125 C 6.53125 -0.148438 5.863281 0 5.09375 0 L 0.328125 0 C 0.492188 -0.144531 0.617188 -0.390625 0.703125 -0.734375 C 0.785156 -1.078125 0.828125 -1.421875 0.828125 -1.765625 L 0.828125 -10.78125 C 0.828125 -10.882812 0.816406 -11.046875 0.796875 -11.265625 C 0.773438 -11.484375 0.722656 -11.710938 0.640625 -11.953125 C 0.554688 -12.191406 0.414062 -12.394531 0.21875 -12.5625 C 0.03125 -12.738281 -0.234375 -12.828125 -0.578125 -12.828125 Z M 3.75 -6.03125 L 3.75 -2.90625 C 3.863281 -2.84375 3.992188 -2.796875 4.140625 -2.765625 C 4.285156 -2.734375 4.441406 -2.71875 4.609375 -2.71875 C 5.035156 -2.71875 5.394531 -2.832031 5.6875 -3.0625 C 5.988281 -3.300781 6.210938 -3.617188 6.359375 -4.015625 C 6.515625 -4.410156 6.59375 -4.84375 6.59375 -5.3125 C 6.59375 -5.539062 6.566406 -5.789062 6.515625 -6.0625 C 6.472656 -6.332031 6.390625 -6.59375 6.265625 -6.84375 C 6.148438 -7.09375 5.988281 -7.296875 5.78125 -7.453125 C 5.582031 -7.609375 5.328125 -7.6875 5.015625 -7.6875 C 4.722656 -7.6875 4.492188 -7.609375 4.328125 -7.453125 C 4.160156 -7.296875 4.035156 -7.109375 3.953125 -6.890625 C 3.878906 -6.679688 3.828125 -6.488281 3.796875 -6.3125 C 3.765625 -6.144531 3.75 -6.050781 3.75 -6.03125 Z M 3.75 -6.03125 "/></g></g></g></g><g fill="#ef0061" fill-opacity="1"><g transform="translate(40.030026, 15.197891)"><g><path d="M -0.578125 -8.609375 C -0.222656 -8.628906 0.15625 -8.691406 0.5625 -8.796875 C 0.96875 -8.910156 1.367188 -9.050781 1.765625 -9.21875 C 2.160156 -9.382812 2.53125 -9.554688 2.875 -9.734375 C 3.226562 -9.910156 3.519531 -10.070312 3.75 -10.21875 L 3.75 -7.40625 C 3.820312 -7.726562 3.929688 -8.050781 4.078125 -8.375 C 4.222656 -8.707031 4.40625 -9.007812 4.625 -9.28125 C 4.851562 -9.5625 5.117188 -9.785156 5.421875 -9.953125 C 5.734375 -10.128906 6.070312 -10.21875 6.4375 -10.21875 C 6.726562 -10.21875 7.007812 -10.160156 7.28125 -10.046875 C 7.550781 -9.929688 7.734375 -9.816406 7.828125 -9.703125 C 7.691406 -9.265625 7.5625 -8.789062 7.4375 -8.28125 C 7.3125 -7.78125 7.210938 -7.289062 7.140625 -6.8125 C 7.023438 -7.007812 6.789062 -7.179688 6.4375 -7.328125 C 6.082031 -7.484375 5.722656 -7.5625 5.359375 -7.5625 C 4.285156 -7.5625 3.75 -7.15625 3.75 -6.34375 L 3.75 -1.78125 C 3.75 -1.425781 3.789062 -1.078125 3.875 -0.734375 C 3.96875 -0.390625 4.09375 -0.144531 4.25 0 L 0.328125 0 C 0.492188 -0.144531 0.617188 -0.390625 0.703125 -0.734375 C 0.785156 -1.078125 0.828125 -1.421875 0.828125 -1.765625 L 0.828125 -6.5 C 0.828125 -6.601562 0.816406 -6.765625 0.796875 -6.984375 C 0.773438 -7.203125 0.722656 -7.429688 0.640625 -7.671875 C 0.554688 -7.910156 0.414062 -8.113281 0.21875 -8.28125 C 0.03125 -8.457031 -0.234375 -8.546875 -0.578125 -8.546875 Z M -0.578125 -8.609375 "/></g></g></g><g clip-path="url(#dbc4048aac)"><g fill="#ef0061" fill-opacity="1"><g transform="translate(47.686805, 15.197891)"><g><path d="M 0.6875 -6.5 C 0.6875 -6.601562 0.675781 -6.765625 0.65625 -6.984375 C 0.632812 -7.203125 0.582031 -7.429688 0.5 -7.671875 C 0.414062 -7.910156 0.273438 -8.113281 0.078125 -8.28125 C -0.109375 -8.457031 -0.375 -8.546875 -0.71875 -8.546875 L -0.71875 -8.609375 C -0.363281 -8.628906 0.015625 -8.691406 0.421875 -8.796875 C 0.828125 -8.910156 1.226562 -9.050781 1.625 -9.21875 C 2.019531 -9.382812 2.390625 -9.554688 2.734375 -9.734375 C 3.078125 -9.910156 3.367188 -10.070312 3.609375 -10.21875 L 3.609375 -3.703125 C 3.609375 -3.242188 3.726562 -2.890625 3.96875 -2.640625 C 4.207031 -2.390625 4.503906 -2.265625 4.859375 -2.265625 C 5.304688 -2.265625 5.644531 -2.40625 5.875 -2.6875 C 6.113281 -2.976562 6.285156 -3.285156 6.390625 -3.609375 L 6.390625 -6.5 C 6.390625 -6.601562 6.378906 -6.765625 6.359375 -6.984375 C 6.347656 -7.203125 6.296875 -7.429688 6.203125 -7.671875 C 6.117188 -7.910156 5.984375 -8.113281 5.796875 -8.28125 C 5.609375 -8.457031 5.34375 -8.546875 5 -8.546875 L 5 -8.609375 C 5.351562 -8.628906 5.726562 -8.691406 6.125 -8.796875 C 6.53125 -8.910156 6.929688 -9.050781 7.328125 -9.21875 C 7.722656 -9.382812 8.09375 -9.554688 8.4375 -9.734375 C 8.789062 -9.910156 9.085938 -10.070312 9.328125 -10.21875 L 9.328125 -7.140625 C 9.328125 -6.492188 9.328125 -5.851562 9.328125 -5.21875 C 9.328125 -4.59375 9.328125 -3.878906 9.328125 -3.078125 C 9.328125 -2.804688 9.347656 -2.535156 9.390625 -2.265625 C 9.441406 -2.003906 9.546875 -1.785156 9.703125 -1.609375 C 9.859375 -1.429688 10.109375 -1.34375 10.453125 -1.34375 L 10.453125 -1.265625 C 10.179688 -1.128906 9.890625 -0.972656 9.578125 -0.796875 C 9.273438 -0.628906 8.984375 -0.46875 8.703125 -0.3125 C 8.421875 -0.15625 8.171875 -0.03125 7.953125 0.0625 C 7.742188 0.164062 7.597656 0.21875 7.515625 0.21875 C 7.273438 0.21875 7.070312 0.117188 6.90625 -0.078125 C 6.738281 -0.285156 6.609375 -0.535156 6.515625 -0.828125 C 6.429688 -1.128906 6.390625 -1.425781 6.390625 -1.71875 L 6.390625 -3.078125 L 4.9375 -0.15625 C 4.757812 -0.0507812 4.5625 0.0351562 4.34375 0.109375 C 4.125 0.179688 3.878906 0.21875 3.609375 0.21875 C 2.703125 0.21875 1.988281 -0.046875 1.46875 -0.578125 C 0.945312 -1.109375 0.6875 -1.910156 0.6875 -2.984375 Z M 0.6875 -6.5 "/></g></g></g></g></g></g></svg>